<?xml version="1.0" encoding="utf-8" ?>
<svg xmlns="http://www.w3.org/2000/svg" xmlns:xlink="http://www.w3.org/1999/xlink" width="1024" height="1024">
	<path fill="#05151E" d="M500.919 114.292C543.33 110.838 594.754 120.237 634.986 133.484C737.395 167.202 821.868 238.878 870.411 335.42C910.326 414.802 922.118 507.157 905.021 594.216C901.332 613.001 895.996 631.339 890.013 649.504C907.427 649.771 924.918 649.052 942.316 649.776C937.321 656.67 932.005 663.401 926.636 670.01C921.438 676.408 912.893 684.77 909.828 692.216C906.065 701.358 905.214 712.872 903.593 722.638L877.947 723.029L859.175 825.881C824.318 825.148 789.429 826.22 754.562 825.843C742.053 834.327 730.217 843.708 717.313 851.651C651.858 891.937 586.354 909.622 509.698 910.355C498.062 910.092 486.426 909.774 474.837 908.629C412.092 902.434 350.659 880.645 298.692 844.853C289.887 838.788 280.922 832.545 272.735 825.666L205.501 826.038C192.705 826.146 179.174 827.13 166.457 825.838C160.113 825.193 154.039 823.896 148.207 821.261C132.903 814.345 122.307 800.811 116.565 785.294C106.675 758.573 112.698 730.559 124.221 705.486C109.971 686.778 95.2458 668.409 81.2087 649.545L139.706 649.511C127.956 610.657 118.884 571.673 116.822 531.011C111.369 423.471 147.506 324.236 219.745 244.452C293.71 162.762 391.502 119.763 500.919 114.292ZM135.392 591.474C132.866 593.76 130.378 595.91 130.115 599.555C129.952 601.803 130.452 604.115 132.03 605.79C133.469 607.318 135.346 608.515 136.643 610.169C138.785 612.9 140.321 617.249 141.914 620.38C146.711 629.811 153.442 639.771 161.837 646.373C159.382 639.35 156.977 632.31 154.737 625.215C151.251 614.173 148.744 602.899 147.91 591.328C146.508 571.853 150.728 520.771 159.862 503.519C168.688 486.845 212.986 469.704 231.105 464.085C227.376 458.928 224.993 462.124 220.976 459.483C220.078 458.893 219.539 458.715 218.44 458.57C214.183 459.203 210.3 460.744 206.369 462.447C206.494 456.447 213.468 433.569 215.576 425.757C218.661 416.392 222.036 407.156 225.462 397.913C231.988 381.716 239.422 365.953 248.793 351.189C254.343 340.631 262.415 331.042 269.639 321.58C280.835 307.036 294.168 293.772 307.673 281.384C318.361 270.87 330.834 262.279 342.998 253.591C358.039 242.659 374.52 234.543 391.432 226.962C405.028 220.53 419.194 216.193 433.641 212.129C452.913 208.016 472.403 205.275 491.963 202.967C507.695 202.291 523.25 201.799 538.931 203.535C557.206 204.64 581.7 209.062 599.177 214.046C613.73 218.575 629.361 222.637 642.635 230.301C660.641 238.76 678.643 248.108 694.554 260.144C706.548 269.051 717.648 278.102 728.451 288.422C742.738 302.333 755.846 317.068 767.422 333.322C772.716 340.327 777.33 347.68 781.732 355.271C798.604 379.347 809.721 413.254 817.862 441.409C818.551 442.391 819.095 442.944 820.181 443.485C824.214 445.495 828.913 446.669 833.145 448.26C838.761 450.371 844.095 453.388 849.226 456.474C849.588 461.111 849.729 465.565 848.742 470.139C850.873 474.509 853.094 479.174 854.397 483.863C861.801 510.496 860.775 550.303 855.407 577.457C853.22 588.518 848.91 599.264 847.21 610.365C852.274 611.235 857.365 612.016 862.34 613.317C866.865 590.585 871.633 568.471 873.642 545.308C880.71 463.842 860.49 380.391 815.011 312.248C761.142 231.534 677.236 175.227 582.002 156.405C488.529 137.93 389.764 159.549 310.962 212.596C231.265 266.246 176.988 350.102 158.72 444.122C157.031 452.817 155.663 461.526 154.79 470.342C154.05 477.801 153.839 485.458 152.299 492.806C150.69 500.486 145.931 507.275 143.964 514.959C137.64 539.67 135.783 566.055 135.392 591.474Z"/>
	<path fill="#FEFEFE" d="M802.648 674.501L891.267 674.487L886.755 700.493L855.243 700.695C853.511 708.296 852.548 716.162 851.277 723.851C848.529 740.475 845.943 757.175 842.795 773.726C841.478 782.743 839.29 791.668 838.309 800.731L809.834 800.742C813.541 779.92 816.699 758.974 820.105 738.099C822.134 725.658 823.943 713.061 826.895 700.802L798.512 700.709C800.05 691.997 801.424 683.263 802.648 674.501Z"/>
	<path fill="#FEFEFE" d="M206.249 673.7C216.633 672.771 227.733 674.497 237.938 676.506C235.701 684.608 233.404 692.577 230.607 700.508C221.585 698.648 211.744 697.731 202.547 698.414C192.726 699.143 183.646 702.841 177.193 710.462C167.924 721.409 165.158 737.987 166.516 751.894C167.285 759.763 170.468 768.488 176.847 773.517C187.161 781.649 205.478 779.087 217.49 777.55C217.235 784.409 216.771 791.27 216.42 798.125C216.35 799.243 216.266 799.834 215.664 800.788C214.765 800.998 213.929 801.184 213.01 801.293C208.732 801.8 204.292 801.854 199.986 802.088C183.408 802.986 165.426 802.899 151.863 791.86C141.406 783.349 136.455 770.95 135.232 757.776C133.203 735.921 139.276 713.707 153.464 696.785C167.259 680.333 185.651 675.407 206.249 673.7Z"/>
	<path fill="#FEFEFE" d="M634.283 674.244C648.739 674.051 663.28 674.493 677.748 674.519C675.632 683.218 674.283 692.178 672.677 700.986L623.657 701.032C623.369 709.161 621.081 717.919 619.722 725.975L663.841 726.002L659.287 750.028L615.619 750.028C615.261 758.51 613.123 767.553 611.871 775.987L632.25 775.979L661.964 775.985L658.066 801.033L579.74 801.026C584.111 780.897 586.897 760.207 590.196 739.868C593.728 718.091 597.789 696.377 600.661 674.498C611.867 674.508 623.082 674.616 634.283 674.244Z"/>
	<path fill="#FEFEFE" d="M276.427 674.483L312.364 674.494C315.13 690.594 317.004 706.776 319.368 722.933L330.988 801.011C320.873 801.293 310.77 801.298 300.653 801.274C299.401 791.549 298.517 781.762 297.505 772.008L278.625 772.086C273.25 772.454 267.787 772.289 262.399 772.317C259.158 782.062 254.465 791.295 251.214 801.024L222.124 800.997L276.427 674.483Z"/>
	<path fill="#05151E" d="M290.207 699.313C292.552 701.427 295.191 744.167 295.564 750.186C289.796 750.398 283.947 750.112 278.175 749.975L270.949 749.969C277.017 732.945 283.535 716.108 290.207 699.313Z"/>
	<path fill="#FEFEFE" d="M379.876 674.249C392.226 674.164 406.522 673.786 418.183 678.189C425.967 681.127 431.936 686.423 435.284 694.114C439.444 703.669 439.05 715.543 435.118 725.102C430.366 736.654 421.588 740.834 410.704 745.314C412.038 745.963 413.429 746.61 414.675 747.419C424.993 754.119 425.844 774.543 427.697 785.695C428.552 790.844 429.741 795.946 430.937 801.024L399.615 801.023C397.743 791.873 397.198 782.381 396.331 773.092C395.507 767.882 394.87 760.052 390.788 756.252C386.821 752.559 380.008 753.435 374.99 753.503C372.628 769.382 369.675 785.17 367.203 801.033L338.263 801.018C339.674 790.407 341.99 779.761 343.888 769.217C349.557 737.732 356.154 706.124 360.732 674.479C367.12 674.511 373.49 674.425 379.876 674.249Z"/>
	<path fill="#05151E" d="M384.189 697.515C387.466 697.476 390.753 697.411 394.031 697.468C398.838 697.552 404.478 698.281 407.873 702.057C410.607 705.096 410.953 709.376 410.577 713.269C409.954 719.728 406.755 724.796 401.885 728.887C395.254 732.447 386.072 731.884 378.733 731.991C380.34 720.475 382.364 709 384.189 697.515Z"/>
	<path fill="#FEFEFE" d="M521.174 674.214C534.058 673.455 550.101 673.7 561.869 679.501C568.508 682.773 573.409 688.741 575.766 695.707C579.155 705.725 577.878 717.442 573.204 726.828C567.976 737.324 560.666 741.712 549.836 745.323C562.034 755.056 562.902 765.024 564.877 779.554C565.863 786.806 567.035 793.862 568.82 800.965C558.868 801.136 548.887 801.018 538.932 801.037C537.279 791.823 535.685 782.762 535.433 773.379C534.863 768.641 534.378 762.849 530.944 759.224C526.496 754.528 518.261 755.463 512.327 755.494C510.358 770.708 508.009 785.834 505.789 801.011L477.275 801.019C483.366 759.097 491.735 717.431 497.266 675.448L521.174 674.214Z"/>
	<path fill="#05151E" d="M521.172 697.674C526.014 697.444 531.028 697.004 535.859 697.46C540.219 697.871 544.797 699.285 547.567 702.888C550.073 706.147 550.506 710.596 549.977 714.551C549.091 721.165 545.819 726.096 540.662 730.116C532.732 734.453 523.983 734 515.238 733.967C517.714 722.008 519.275 709.742 521.172 697.674Z"/>
	<path fill="#FEFEFE" d="M691.651 674.5C701.758 674.387 711.882 674.656 721.991 674.694C727.761 689.516 733.783 704.284 739.199 719.237C744.043 732.608 748.343 746.282 753.618 759.481C758.46 731.215 762.417 702.786 767.26 674.506L794.361 674.506L774.092 796.005C773.811 797.627 773.68 799.326 772.811 800.755L742.012 800.829C730.819 772.359 720.868 743.3 710.837 714.401C710.063 720.312 708.682 726.179 707.778 732.084L697.062 801.032L670.775 801.026C675.294 779.316 677.992 756.932 681.493 735.02C684.717 714.835 688.835 694.746 691.651 674.5Z"/>
	<path fill="#EEC119" d="M344.287 825.748C374.09 825.36 403.999 825.996 433.82 826.001L688.911 825.721C677.498 832.44 665.49 837.77 653.392 843.115C643.209 847.433 632.981 851.53 622.473 855.005C550.847 878.696 470.252 877.595 398.982 853.165C377.824 845.913 357.664 836.187 337.73 826.13L344.287 825.748Z"/>
	<path fill="#05151E" d="M175.595 476.793C185.052 414.036 203.293 361.387 241.191 309.84C293.406 238.819 375.6 189.879 462.615 176.731C551.989 163.228 643.856 186.409 716.443 240.193C778.602 286.249 823.802 352.789 842.873 427.764C845.271 437.19 847.795 446.85 849.226 456.474C844.095 453.388 838.761 450.371 833.145 448.26C828.913 446.669 824.214 445.495 820.181 443.485C819.095 442.944 818.551 442.391 817.862 441.409C809.721 413.254 798.604 379.347 781.732 355.271C777.33 347.68 772.716 340.327 767.422 333.322C755.846 317.068 742.738 302.333 728.451 288.422C717.648 278.102 706.548 269.051 694.554 260.144C678.643 248.108 660.641 238.76 642.635 230.301C629.361 222.637 613.73 218.575 599.177 214.046C581.7 209.062 557.206 204.64 538.931 203.535C523.25 201.799 507.695 202.291 491.963 202.967C472.403 205.275 452.913 208.016 433.641 212.129C419.194 216.193 405.028 220.53 391.432 226.962C374.52 234.543 358.039 242.659 342.998 253.591C330.834 262.279 318.361 270.87 307.673 281.384C294.168 293.772 280.835 307.036 269.639 321.58C262.415 331.042 254.343 340.631 248.793 351.189C239.422 365.953 231.988 381.716 225.462 397.913C222.036 407.156 218.661 416.392 215.576 425.757C213.468 433.569 206.494 456.447 206.369 462.447C195.58 466.275 185.673 471.422 175.595 476.793Z"/>
	<path fill="#FEFEFE" d="M491.963 202.967C507.695 202.291 523.25 201.799 538.931 203.535C557.206 204.64 581.7 209.062 599.177 214.046C613.73 218.575 629.361 222.637 642.635 230.301C660.641 238.76 678.643 248.108 694.554 260.144C706.548 269.051 717.648 278.102 728.451 288.422C742.738 302.333 755.846 317.068 767.422 333.322C772.716 340.327 777.33 347.68 781.732 355.271C798.604 379.347 809.721 413.254 817.862 441.409C818.551 442.391 819.095 442.944 820.181 443.485C824.214 445.495 828.913 446.669 833.145 448.26C838.761 450.371 844.095 453.388 849.226 456.474C849.588 461.111 849.729 465.565 848.742 470.139C839.547 459.459 827.535 456.256 814.305 453.219C806.945 443.931 800.413 434.044 793.134 424.707C772.261 397.931 747.673 372.637 717.978 355.678C700.52 345.708 680.509 338.705 660.82 334.824C606.899 324.197 538.833 327.128 483.837 332.648C465.628 334.476 447.219 336.197 429.517 341.086C418.078 344.245 413.625 348.49 407.898 358.613C377.603 370.368 355.14 395.077 333.528 418.425C325.899 426.668 318.142 434.464 311.281 443.4C313.804 434.518 316.654 424.757 314.222 415.596C313.395 415.523 312.578 415.462 311.748 415.423C303.549 415.047 280.036 415.362 274.172 421.093C268.784 426.36 269.123 439.011 268.985 446.022C277.077 447.173 285.642 447.2 293.818 447.807C284.629 450.395 275.113 452.056 265.813 454.245C254.098 457.003 242.552 460.379 231.105 464.085C227.376 458.928 224.993 462.124 220.976 459.483C220.078 458.893 219.539 458.715 218.44 458.57C214.183 459.203 210.3 460.744 206.369 462.447C206.494 456.447 213.468 433.569 215.576 425.757C218.661 416.392 222.036 407.156 225.462 397.913C231.988 381.716 239.422 365.953 248.793 351.189C254.343 340.631 262.415 331.042 269.639 321.58C280.835 307.036 294.168 293.772 307.673 281.384C318.361 270.87 330.834 262.279 342.998 253.591C358.039 242.659 374.52 234.543 391.432 226.962C405.028 220.53 419.194 216.193 433.641 212.129C452.913 208.016 472.403 205.275 491.963 202.967Z"/>
	<path fill="#EEC119" d="M215.576 425.757C225.449 432.546 237.015 439.795 245.394 448.334C239.742 450.245 220.31 455.397 217.005 458.403L218.44 458.57C214.183 459.203 210.3 460.744 206.369 462.447C206.494 456.447 213.468 433.569 215.576 425.757Z"/>
	<path fill="#EEC119" d="M781.732 355.271C798.604 379.347 809.721 413.254 817.862 441.409C810.169 435.366 801.867 419.261 795.142 410.979C784.439 397.797 772.949 385.869 760.883 373.949C767.86 367.842 774.332 360.827 781.732 355.271Z"/>
	<path fill="#EEC119" d="M248.793 351.189C260.722 362.984 272.128 375.836 283.273 388.379C288.128 393.842 292.794 399.815 297.958 404.961C286.998 405.004 274.216 404.292 265.965 412.951C262.042 417.067 260.371 422.111 258.585 427.363C247.858 417.361 236.685 407.345 225.462 397.913C231.988 381.716 239.422 365.953 248.793 351.189Z"/>
	<path fill="#EEC119" d="M728.451 288.422C742.738 302.333 755.846 317.068 767.422 333.322C759.13 341.977 750.606 350.413 742.141 358.898C727.588 349.281 713.096 340.258 696.783 333.877C707.92 319.164 717.297 303.112 728.451 288.422Z"/>
	<path fill="#EEC119" d="M642.635 230.301C660.641 238.76 678.643 248.108 694.554 260.144C692.316 265.79 689.054 271.262 686.463 276.788C678.934 292.851 671.373 309.185 662.658 324.637C647.257 321.053 631.355 319.669 615.611 318.675C623.792 288.964 633.357 259.682 642.635 230.301Z"/>
	<path fill="#EEC119" d="M269.639 321.58C280.835 307.036 294.168 293.772 307.673 281.384C311.06 287.657 314.835 293.706 318.336 299.915C325.431 312.499 332.364 325.148 339.776 337.552C347.069 349.757 355.091 361.893 361.366 374.639L334.144 401.601C327.764 394.384 321.943 386.573 315.951 379.03L285.967 341.507C280.658 334.918 275.499 327.666 269.639 321.58Z"/>
	<path fill="#EEC119" d="M342.998 253.591C358.039 242.659 374.52 234.543 391.432 226.962L412.577 297.392C414.704 304.396 416.764 311.426 419.003 318.396C420.347 322.578 422.039 326.827 423.043 331.099C413.445 334.264 407.277 342.288 399.785 348.486C396.35 351.328 392.47 353.575 388.662 355.874C376.942 331.599 366.273 306.624 355.352 281.971C352.504 275.539 344.459 259.568 342.998 253.591Z"/>
	<path fill="#EEC119" d="M538.931 203.535C557.206 204.64 581.7 209.062 599.177 214.046C597.698 218.441 596.963 223.434 595.979 227.997C592.921 242.173 590.604 256.525 588.003 270.792C585.225 286.028 581.277 301.479 579.336 316.809C564.852 316.506 549.931 316.276 535.512 317.913C535.353 303.661 536.117 289.31 536.457 275.052C537.025 251.217 537.495 227.336 538.931 203.535Z"/>
	<path fill="#EEC119" d="M433.641 212.129C452.913 208.016 472.403 205.275 491.963 202.967C493.047 226.6 495.178 250.167 496.72 273.771C497.672 288.336 497.811 305.573 499.892 319.644C485.666 321.278 471.351 322.321 457.318 325.261L443.394 257.589C440.684 244.115 438.528 230.425 435.482 217.031C435.145 215.549 434.859 213.102 433.641 212.129Z"/>
	<path d="M407.898 358.613C413.625 348.49 418.078 344.245 429.517 341.086C447.219 336.197 465.628 334.476 483.837 332.648C538.833 327.128 606.899 324.197 660.82 334.824C680.509 338.705 700.52 345.708 717.978 355.678C747.673 372.637 772.261 397.931 793.134 424.707C800.413 434.044 806.945 443.931 814.305 453.219C827.535 456.256 839.547 459.459 848.742 470.139C850.873 474.509 853.094 479.174 854.397 483.863C861.801 510.496 860.775 550.303 855.407 577.457C853.22 588.518 848.91 599.264 847.21 610.365C843.145 619.326 838.308 635.896 828.629 639.869C826.485 640.749 824.33 641.033 822.189 639.995C821.903 639.856 821.622 639.708 821.339 639.564C819.658 640.366 818.017 641.115 816.202 641.559C810.276 643.007 805.838 640.849 800.919 637.823C799.174 638.534 797.255 638.705 795.384 638.833C788.604 639.298 783.753 638.317 778.621 633.818C774.433 634.313 770.12 634.958 766.237 632.833C760.825 629.872 758.982 622.591 757.24 617.153C746.468 617.974 735.556 619.955 724.788 621.183L653.894 629.141C638.467 630.991 622.57 633.815 607.021 633.804C603.777 635.983 598.307 636.312 594.587 635.893C590.486 642.325 585.955 648.795 579.462 653.011C573.351 656.978 566.083 658.804 558.881 657.15C547.453 654.525 541.189 645.23 535.396 635.938C529.098 637.705 522.503 638.146 516.077 639.243C509.119 640.431 502.171 642.141 495.158 642.93C484.957 644.077 474.627 644.285 464.377 644.714L420.524 646.334C371.265 647.661 322.19 647.535 272.936 645.871C253.189 645.203 233.475 644.813 213.766 643.282C197.656 642.03 183.355 639.563 167.503 637.317C165.97 640.311 164.456 644.151 161.837 646.373C159.382 639.35 156.977 632.31 154.737 625.215C151.251 614.173 148.744 602.899 147.91 591.328C146.508 571.853 150.728 520.771 159.862 503.519C168.688 486.845 212.986 469.704 231.105 464.085C242.552 460.379 254.098 457.003 265.813 454.245C275.113 452.056 284.629 450.395 293.818 447.807C285.642 447.2 277.077 447.173 268.985 446.022C269.123 439.011 268.784 426.36 274.172 421.093C280.036 415.362 303.549 415.047 311.748 415.423C312.578 415.462 313.395 415.523 314.222 415.596C316.654 424.757 313.804 434.518 311.281 443.4C318.142 434.464 325.899 426.668 333.528 418.425C355.14 395.077 377.603 370.368 407.898 358.613Z"/>
	<path fill="#FEFEFE" d="M178.868 502.989C186.524 503.761 193.913 504.985 200.297 509.632C212.415 518.454 214.951 536.879 217.257 550.594C213.175 550.484 209.076 549.961 205.011 549.57C196.375 548.505 187.33 547.802 179.026 545.082C173.715 543.343 169.239 540.55 166.781 535.336C163.766 528.94 164.113 520.781 166.731 514.29C169.176 508.231 173.065 505.376 178.868 502.989Z"/>
	<path fill="#FEFEFE" d="M607.779 623.782C638.27 620.915 668.683 617.065 699.145 613.887C721.582 611.547 744.53 610.239 766.759 606.392C768.925 616.268 770.894 626.608 778.621 633.818C774.433 634.313 770.12 634.958 766.237 632.833C760.825 629.872 758.982 622.591 757.24 617.153C746.468 617.974 735.556 619.955 724.788 621.183L653.894 629.141C638.467 630.991 622.57 633.815 607.021 633.804C606.315 630.19 606.908 627.309 607.779 623.782Z"/>
	<path fill="#FEFEFE" d="M459.298 503.528C469.797 503.192 484.597 501.927 493.045 509.456C495.347 511.507 496.276 514.463 496.292 517.487C496.343 526.621 487.676 539.798 481.224 545.893C474.4 552.339 464.62 550.783 455.992 550.504L418.08 550.996C419.3 547.064 420.521 543.14 422.178 539.364C429.341 523.038 442.687 510.03 459.298 503.528Z"/>
	<path fill="#FEFEFE" d="M800.919 637.823C787.407 623.221 783.081 604.309 783.813 584.799C784.435 568.224 788.631 548.452 801.256 536.654C805.131 533.033 810.09 530.068 815.558 530.266C821.477 530.48 826.799 534.207 830.619 538.5C842.07 551.367 844.235 572.592 843.129 589.022C842.011 605.624 837.794 626.012 824.386 637.33C823.42 638.145 822.392 638.868 821.339 639.564C819.658 640.366 818.017 641.115 816.202 641.559C810.276 643.007 805.838 640.849 800.919 637.823Z"/>
	<path d="M814.743 546.557C817.431 546.391 819.591 546.618 822.132 547.603C827.921 549.846 831.596 554.765 834.045 560.268C840.521 574.818 840.364 594.566 834.666 609.331C831.655 617.132 827.431 622.88 819.589 626.342C817.332 626.437 814.934 626.279 812.791 625.527C807.471 623.66 803.742 619.328 801.292 614.406C794.162 600.085 794.232 580.052 799.321 565.114C802.183 556.71 806.596 550.525 814.743 546.557Z"/>
	<path fill="#FEFEFE" d="M676.007 371.666C685.374 370.467 695.982 371.672 704.82 375.012C710.973 377.336 716.358 380.607 721.385 384.829C736.473 397.501 761.014 429.613 769.355 447.91C760.067 448.6 750.731 448.488 741.424 448.775L683.684 450.512C682.512 450.529 681.507 450.444 680.356 450.221C680.909 449.056 682.543 448.279 683.556 447.447C686.579 444.961 688.342 441.726 688.618 437.801C688.975 432.728 687.454 427.04 684.029 423.199C679.01 417.57 671.183 416.945 664.134 416.637C657.204 416.335 646.79 415.885 641.451 421.102C636.334 426.103 637.448 438.439 637.504 445.301C634.015 445.45 630.516 445.443 627.024 445.477C633.888 425.68 636.953 403.474 649.781 386.319C656.779 376.961 664.638 373.327 676.007 371.666Z"/>
	<path fill="#FEFEFE" d="M535.396 635.938C524.915 609.811 523.286 581.739 534.649 555.498C539.371 544.592 547.205 533.571 558.651 529.07C564.826 526.642 571.887 526.608 577.913 529.516C589.44 535.08 596.452 549.335 600.209 560.865C608.068 584.989 606.548 612.84 594.817 635.455L594.587 635.893C590.486 642.325 585.955 648.795 579.462 653.011C573.351 656.978 566.083 658.804 558.881 657.15C547.453 654.525 541.189 645.23 535.396 635.938Z"/>
	<path d="M569.957 547.047C573.543 546.851 576.985 547.851 580.106 549.578C587.995 553.942 592.354 562.988 594.763 571.304C599.869 588.935 599.271 611.227 590.24 627.546C586.04 635.135 580.522 639.933 572.06 642.328C568.413 641.722 565.336 641.239 562.053 639.4C553.671 634.706 549.121 625.297 546.572 616.412C541.588 599.034 542.559 577.702 551.618 561.774C555.876 554.288 561.494 549.347 569.957 547.047Z"/>
	<path fill="#FEFEFE" d="M501.65 359.257C509.11 358.466 517.035 359.066 524.531 359.252C544.917 359.757 597.926 361.224 613.907 372.761C612.27 381.088 603.862 397.419 600.125 406.257C593.534 421.846 587.864 438.363 580.099 453.372C536.238 444.836 490.469 442.763 445.875 441.529C405.814 441.086 366.196 442.217 326.241 445.063C342.878 428.23 358.1 410.091 374.657 393.163C381.357 386.313 387.968 378.73 396.424 374.017C419.915 360.926 474.365 359.559 501.65 359.257Z"/>
	<path fill="#F64C29" d="M546.914 342.273C552.388 342.044 557.866 342.007 563.343 342.062C581.164 342.24 599.038 342.993 616.825 344.081C675.938 347.697 722.107 359.051 764.18 403.642C773.368 413.38 781.901 423.839 789.849 434.607C794.538 440.959 798.775 448.762 804.4 454.25C812.767 462.414 830.271 460.069 840.919 471.403C853.9 485.218 852.958 529.224 852.219 548.026C850.006 537.762 847.694 527.723 842.296 518.573C837.801 510.953 830.524 503.354 821.606 501.297C816.509 500.122 811.739 501.306 807.36 504.045C783.52 518.957 767.061 571.221 760.694 597.859C743.32 598.806 725.826 601.727 708.54 603.835C676.172 607.781 643.769 611.737 611.321 614.954C615.016 601.267 617.494 587.128 617.399 572.909C617.253 551.215 612.246 527.053 596.246 511.317C589.029 504.219 580.059 499.351 569.713 499.539C558.438 499.743 547.189 506.078 539.493 514.007C521.248 532.806 514.227 559.195 510.078 584.357C508.713 592.633 507.339 601.046 507.544 609.459C507.63 612.995 507.76 616.907 508.529 620.359C509.337 623.985 511.867 628.06 511.671 631.805C511.606 633.044 511.312 634.067 510.216 634.774C497.189 643.173 314.823 643.367 289.517 642.911C265.901 642.485 242.312 641.262 218.734 639.897C206.24 639.174 192.196 639.497 180.104 636.223C173.273 634.374 168.43 630.219 165.016 624.103C161.9 618.52 160.199 612.079 158.68 605.907C152.282 579.91 155.485 555.951 162.489 530.628C163.849 534.555 164.961 538.961 167.834 542.102C176.939 552.059 208.097 553.342 221.315 554.076C217.367 540.395 217.941 522.976 208.936 511.285C202.502 502.931 193.227 501.2 183.45 499.768C231.101 466.161 303.947 451.41 361.375 449.53C424.274 448.359 485.791 453.18 548.192 460.454C514.348 464.774 472.039 479.352 445.503 501.492C429.759 514.627 419.102 532.332 417.297 552.972C433.905 553.556 450.813 554.276 467.419 553.706C475.669 553.423 480.153 551.022 485.726 545.002C492.441 537.748 503.589 523.675 502.922 513.094C502.722 509.931 501.325 507.198 498.94 505.119C490.781 498.007 473.106 499.235 463.166 499.79C500.632 478.172 568.536 466.691 612.098 463.435C632.099 497.608 636.637 543.618 630.476 582.168C629.991 585.201 625.551 602.407 625.758 603.056C628.866 599.059 629.93 592.051 631.563 587.219C641.028 559.218 644.024 520.11 636.532 491.495C633.915 481.503 629.712 472.309 625.147 463.097C645.188 459.975 666.465 460.309 686.751 459.508L797.22 455.954C773.953 421.485 739.826 373.411 696.899 363.538C682.756 360.286 664.923 359.577 652.192 367.685C628.552 382.739 617.325 427.469 611.738 453.476L586.185 454.981C592.543 445.494 597.437 434.629 602.688 424.467C609.957 410.401 617.842 396.16 623.938 381.551C625.211 378.499 627.308 373.638 627.117 370.303C626.998 368.227 625.387 366.403 623.845 365.147C616.476 359.143 603.217 358.028 594.057 356.676C540.59 348.786 484.142 350.661 430.55 356.729C460.613 345.391 514.225 343.165 546.914 342.273Z"/>
	<path d="M726.697 477.242C729.849 477.184 733.604 476.792 736.609 477.815C738.418 478.431 739.486 479.202 740.33 480.975C740.367 482.366 740.196 483.285 739.24 484.328C735.961 487.904 730.14 488.08 725.625 488.375C721.471 488.601 717.086 488.922 713.232 487.041C711.661 486.275 710.776 485.467 710.202 483.787C710.291 482.867 710.342 482.143 710.928 481.374C714.156 477.132 721.97 477.43 726.697 477.242Z"/>
	<path d="M781.003 474.29C786.552 473.947 795.803 472.993 800.712 476.105C801.832 476.815 802.675 477.834 802.791 479.205C802.948 481.048 801.814 483.299 800.618 484.645C798.903 486.574 796.715 486.521 794.328 486.723C788.967 486.813 781.094 487.663 776.106 485.341C774.71 484.692 773.489 483.622 773.078 482.08C772.327 479.261 774.239 476.766 775.635 474.502L781.003 474.29Z"/>
	<path d="M161.041 592.734C167.155 595.838 172.826 597.839 179.58 599.193C193.282 601.939 207.667 602.896 221.587 603.84C250.915 605.83 280.364 606.192 309.75 606.241C348.097 606.304 386.815 606.506 425.074 603.722C445.793 602.215 466.081 599.877 486.325 595.157C484.825 602.709 482.948 609.4 479.75 616.427C475.935 622.632 470.23 626.093 463.261 627.804C443.843 632.572 416.394 631.777 395.996 632.32C345.237 633.67 294.432 633.706 243.695 631.415C226.032 630.617 207.706 630.695 190.248 627.846C186.342 627.209 182.109 626.268 178.733 624.13C168.314 617.532 163.678 604.11 161.041 592.734Z"/>
	<path d="M310.204 506.754C330.096 506.43 388.245 505.738 402.099 519.266C405.24 522.333 406.474 526.742 406.403 531.038C406.172 544.88 393.341 567.308 383.754 576.837C381.431 579.146 378.676 581.357 375.716 582.783C362.502 589.147 339.783 587.034 325.241 586.961C311.337 586.177 297.03 586.622 283.096 586.587C273.833 586.565 264.24 587.036 255.183 584.788C252.388 584.094 250.052 582.941 247.816 581.124C235.874 571.418 231.783 550.905 230.604 536.484C230.08 530.085 229.996 522.444 234.536 517.354C236.303 515.372 238.625 514.071 241.127 513.244C257.863 507.709 291.709 507.556 310.204 506.754Z"/>
	<path fill="#FEFEFE" d="M313.056 509.247C313.49 509.538 313.646 509.613 314.034 510.023C315.751 511.835 315.481 514.923 315.58 517.262C328.896 517.261 342.105 517.631 355.407 518.108C361.487 518.326 368.995 517.847 374.818 519.606C368.836 520.508 362.233 519.893 356.144 520.021L315.522 521.013L315.502 533.228L357.465 534.03C364.749 534.219 372.849 533.795 379.973 535.335C358.657 537.41 337.197 537.516 315.801 537.503C315.7 541.56 315.741 545.63 315.716 549.689C336.8 550.705 358.251 549.632 379.239 552.046C369.421 553.282 359.626 553.298 349.753 553.581L315.526 554.517L315.503 566.446C329.646 567.76 344.057 567.113 358.25 567.553C363.859 567.726 369.487 568.345 375.079 568.824C371.657 570.547 323.062 571.122 315.641 571.597C315.263 573.987 315.08 576.623 314.122 578.855L313.585 578.403L312.325 571.554C296.233 570.855 280.145 570.784 264.061 569.756C259.829 569.486 254.64 569.703 250.617 568.444C258.013 566.556 272.162 567.542 280.246 567.425C290.999 567.269 301.755 566.757 312.506 566.482L312.5 554.515C303.945 554.444 250.099 553.379 246.08 552.003C253.059 550.842 260.719 551.14 267.809 550.904L312.511 549.662L312.496 537.511C288.956 537.49 265.082 537.334 241.631 535.339C250.609 533.983 260.014 533.915 269.084 533.702C283.479 533.364 297.889 533.343 312.288 533.239C312.34 529.163 312.282 525.08 312.273 521.003C295.178 521.09 277.941 520.486 260.895 519.194C277.073 516.835 295.492 517.437 311.88 517.301C312.14 514.561 312.426 511.933 313.056 509.247Z"/>
</svg>
