<?xml version="1.0" encoding="utf-8" ?>
<svg xmlns="http://www.w3.org/2000/svg" xmlns:xlink="http://www.w3.org/1999/xlink" width="1024" height="1024">
	<path fill="#FEFEFE" d="M-0 -0L1024 0L1024 1024L-0 1024L0 -0Z"/>
	<path fill="#0A1422" d="M150.597 668.552L150.427 667.674C149.797 664.737 148.096 661.686 146.88 658.945L139.708 642.306C133.684 627.139 128.751 611.072 124.73 595.258C108.889 532.956 108.745 465.65 125.41 403.485C135.214 366.916 150.48 332.57 170.034 300.225C178.351 286.468 188.081 273.286 198.14 260.756C252.82 192.65 330.099 143.082 415.139 122.562C519.783 97.3121 633.053 114.552 724.963 170.86C798.56 215.948 854.352 283.346 885.542 363.744C891.639 379.461 897.091 395.601 901.034 412C924.611 510.068 908.903 619.614 855.875 705.795C849.27 716.529 841.975 726.705 834.282 736.674C833.766 737.342 832.818 738.151 832.906 738.983C836.674 739.293 841.116 739.138 844.772 739.978C849.345 740.232 853.458 740.408 856.778 743.957C859.067 746.404 860.071 748.629 859.888 751.985L856.569 773.411L886.5 776.681L934.064 783.142L949.736 785.13C951.483 785.354 953.774 785.223 954.996 786.5C955.083 787.505 955.174 788.612 954.767 789.561C953.482 792.558 950.953 795.589 949.185 798.36L922.71 838.958L915.821 849.095C915.703 849.28 914.622 850.822 914.622 851.008C914.621 851.992 921.328 863.568 922.182 865.222L946.823 914.005L769.973 913.995L773.024 880.562L711.78 873.483C616.941 864.391 521.333 860.793 426.111 864.802L350.205 869.359L302.888 874.051L252.465 880.638L253.568 913.882L76.8954 914.299L108.375 852.146C106.012 846.128 101.219 839.954 97.7895 834.358C88.4241 819.074 78.2827 803.772 69.8482 787.987L167.576 772.119L163.523 742.764L177.285 740.744C180.345 740.248 183.488 739.434 186.588 739.713C187.702 739.34 188.325 739.161 189.289 738.47L167.282 704.836C163.117 704.753 159.372 704.494 155.689 702.33C151.865 700.082 149.36 696.325 148.37 692.037C147.799 689.568 147.903 686.78 147.851 684.252C147.729 678.404 147.476 673.807 150.597 668.552Z"/>
	<path fill="#FEFEFE" d="M390.967 291.047L391.484 286.75C392.903 275.673 398.913 265.731 406.687 257.909C410.929 253.64 415.859 249.981 421.292 247.366C422.765 246.657 424.61 245.638 426.25 245.626L427.315 248.02C414.074 252.538 401.965 264.413 395.75 276.768L394.677 279.365C393.752 281.989 392.903 284.556 392.421 287.307C392.263 288.207 392.085 288.469 391.793 289.25L391.625 289.862C391.398 290.654 391.55 290.306 390.967 291.047Z"/>
	<path fill="#FEFEFE" d="M521.213 464.75C522.076 464.534 522.398 464.535 523.25 464.633L524.691 469.486L515.341 476.111L508.897 473.474L501.29 470.39L521.213 464.75Z"/>
	<path fill="#F8B64D" d="M815.017 712.651C815.449 709.651 817.238 706.538 818.179 703.62C820.121 697.598 821.327 691.629 822.208 685.372C825.488 685.589 828.974 686.251 832.184 685.454L832.685 685.319C830.363 691.293 826.44 695.964 823.057 701.291C820.915 704.665 818.192 710.225 815.017 712.651Z"/>
	<path fill="#FEFEFE" d="M464.264 463.917L488.183 470.179C486.974 471.451 484.401 472.276 482.784 473.047C479.911 474.371 477.018 475.183 474.342 476.944L473.868 477.265L462.945 469.26C462.902 467.579 463.786 465.547 464.264 463.917Z"/>
	<path fill="#FEFEFE" d="M462.247 475.605L467.939 480.924C469.832 482.466 473.29 485.219 475.804 484.738L476.5 484.534L477.219 484.357L477.75 484.216C479.666 486.627 481.142 489.269 482.678 491.929L462.194 490.561L462.247 475.605Z"/>
	<path fill="#FEFEFE" d="M525.611 475.75L526.205 475.721C527.103 476.662 526.983 478.49 527.139 479.775L528.582 491.997L510.875 492.587C510.125 492.593 509.417 492.454 508.677 492.341C509.192 489.41 511.502 486.431 513.25 484.068C514.457 483.829 515.539 483.939 516.75 484.043L525.611 475.75Z"/>
	<path fill="#0E3551" d="M849.483 818.665C849.191 817.876 848.736 817.113 849 816.25C849.533 814.509 849.729 812.843 849.878 811L850 809.75C850.427 808.487 850.893 806.592 850.893 805.219C850.893 804.446 850.816 804.526 851 803.75C851.286 802.542 851.34 801.263 851.689 800.109C851.943 799.266 851.863 799.722 851.939 798.797C852.032 797.659 851.943 798.279 852.181 797.031L852.759 793.173C852.893 792.378 853.044 791.888 852.885 791.078L852.755 790.5L853.25 790C853.258 788.819 853.485 787.65 853.75 786.5C853.944 785.659 854.038 785.308 853.893 784.422L853.755 783.75C854.519 783.111 855.192 782.803 856.25 783C857.174 783.172 857.731 783.447 858.75 783.5L858.755 782C859.228 781.288 859.643 780.842 860.25 780.255L860.745 780.75L861.5 780.5C862.287 781.132 861.856 781 862.755 781L863.378 780L863 778.75L864.25 777.255C865.454 777.149 865.955 777.422 866.997 778.003L867.125 778.875L868 778.255L868.625 778.875L869.5 778.255L870.125 778.875L871 778.255L871.625 778.875L872.25 778.255C874.347 778.114 876.437 778.001 878.497 778.503L878.75 779.5C880.313 779.663 881.461 779.672 882.641 780.846L883.125 781.375C883.805 780.869 883.432 781.079 884.25 780.755C885.025 781.048 885.544 781.284 886.245 781.75L885.75 782.745C886.423 783.432 886.932 784.129 887.168 785.079L887.245 785.5C888.029 785.5 887.6 785.425 888.497 785.875L888.5 786.378C889.589 786.922 890.374 787.092 891.594 786.893C892.816 786.694 893.89 787.665 895.602 787.385L896.25 787.255L897 787.878C897.979 787.852 899.129 787.703 900.055 788.048C901.024 788.409 901.511 788.567 902.578 788.393C903.554 788.234 903.434 788.37 904.247 788.875C905.424 788.895 906.689 788.838 907.833 789.128C908.795 789.372 909.214 789.554 910.25 789.409L911 789.255C912.55 790.027 913.942 790.163 915.641 789.885C916.885 789.682 916.321 790.201 917.25 790.5C917.628 790.622 919.03 790.306 919.5 790.255C920.844 791 921.579 791.085 923.078 790.885L924 790.755C925.372 791.847 926.905 791.087 928.497 791.503C929.962 791.885 930.355 792.014 931.942 791.826L932.5 791.755C933.905 793.149 935.322 791.728 937.082 793.414L854.933 783.852L851.423 807.075C850.828 810.845 850.542 815.018 849.483 818.665Z"/>
	<path fill="#F8B64D" d="M795.728 735.784C804.261 729.278 809.456 722.082 814.873 712.99C815.396 717.222 817.59 721.351 819.302 725.217C820.031 726.865 820.782 729.153 822.054 730.458C820.126 732.887 818.194 735.084 815.926 737.2L795.728 735.784Z"/>
	<path fill="#CA6030" d="M493.317 473.979C497.756 473.253 506.22 478.109 510.196 479.933C507.744 482.806 505.423 485.785 503.272 488.889C502.832 489.524 501.543 491.911 500.972 492.25C500.579 492.483 500.074 492.423 499.625 492.51L489.512 492.073L481.365 479.38L493.317 473.979Z"/>
	<path fill="#10517B" d="M518.221 595.616L521.25 595.367C530.507 595.04 539.254 599.193 545.75 605.643C558.983 618.782 565.905 641.616 565.976 659.926L563.854 649.602C559.413 631.504 552.54 616.008 536.254 605.613C526.483 599.376 516.252 598.726 505.168 601.023C509.521 598.541 513.337 596.804 518.221 595.616Z"/>
	<path fill="#10517B" d="M532.165 465.466C540.846 467.502 549.569 470.136 557.623 473.994C553.924 478.516 553.162 481.266 552.9 487.008C552.765 487.599 552.416 488.117 552.133 488.65C547.548 490.546 541.034 490.578 536.078 491.21C536.088 482.922 534.272 473.469 532.165 465.466Z"/>
	<path fill="#F8D5A6" d="M393.052 351.25L393.669 351.39C395.62 354.999 396.383 359.984 397.454 363.977C395.618 365.645 392.889 366.087 391.455 368.25C390.521 369.659 390.714 371.9 391.244 373.437C391.703 374.77 391.734 374.964 393 375.538C393.602 375.037 393.916 374.679 394.148 373.918C394.935 371.342 396.091 369.409 397.489 367.134L398.45 390.886C398.537 392.227 398.698 393.449 398.25 394.745C397.532 394.679 396.968 394.525 396.303 394.24C391.048 391.987 388.181 387.689 386.086 382.61C383.242 375.713 381.481 364.797 384.682 357.668C386.36 353.928 389.409 352.523 393.052 351.25Z"/>
	<path fill="#F8D5A6" d="M596.044 356.682L597.327 357.258C602.461 359.745 606.261 362.836 608.169 368.458C610.129 374.23 608.835 381.49 606.146 386.787C603.822 391.365 599.597 395.497 594.64 396.975C593.052 397.449 591.104 398.046 589.62 397.25L590.362 392.791L590.476 392.12L590.657 391C591.865 384.505 591.493 377.837 591.474 371.25L592.25 370.52C596.395 372.583 597.403 375.991 599.613 379.75L600.25 379.616L600.72 378.349C601.354 375.938 600.536 372.425 599.216 370.364C597.658 367.933 596.115 367.434 593.389 366.906L592.633 366.764C592.449 363.967 594.967 359.286 596.044 356.682Z"/>
	<path fill="#FEFEFE" d="M221.326 734.585L202.987 736.857L181.69 704.938L199.072 704.96C204.938 716.492 211.128 726.33 221.326 734.585Z"/>
	<path fill="#57C3D9" d="M834.09 626.931L847.765 626.93C849.774 626.941 852.412 626.611 854.25 627.442C855.314 627.923 855.882 628.465 856.25 629.587C856.99 631.84 856.397 635.982 856.346 638.42L856.143 651.594C856.11 654.189 856.461 657.315 855.492 659.75C852.298 662.085 844.498 661.121 840.534 661.148C840.4 649.396 837.943 637.977 834.09 626.931Z"/>
	<defs>
		<linearGradient id="gradient_0" gradientUnits="userSpaceOnUse" x1="410.97324" y1="294.38086" x2="383.74069" y2="325.87177">
			<stop offset="0" stop-color="#D26406"/>
			<stop offset="1" stop-color="#E78012"/>
		</linearGradient>
	</defs>
	<path fill="url(#gradient_0)" d="M394.677 279.365C397.085 280.896 397.329 283.104 398.549 285.534C400.935 290.288 404.882 297.094 409.887 299.438C404.464 314.376 401.719 329.552 400.625 345.37L400.239 344.808C398.472 340.986 397.654 335.838 396.686 331.716C394.293 321.527 392.064 311.519 391.076 301.079C390.778 297.925 390.203 294.138 390.967 291.047C391.55 290.306 391.398 290.654 391.625 289.862L391.793 289.25C392.085 288.469 392.263 288.207 392.421 287.307C392.903 284.556 393.752 281.989 394.677 279.365Z"/>
	<path fill="#0E3551" d="M452.83 466.089C453.748 465.938 454.236 465.968 455.123 466.25L453.516 490.56L422.62 488.13L415.565 487.499C417.871 484.641 420.065 481.54 422.757 479.026C430.959 471.369 442.134 468.304 452.83 466.089Z"/>
	<defs>
		<linearGradient id="gradient_1" gradientUnits="userSpaceOnUse" x1="201.8134" y1="628.66101" x2="163.53891" y2="618.06622">
			<stop offset="0" stop-color="#0C95C9"/>
			<stop offset="1" stop-color="#2ABAEE"/>
		</linearGradient>
	</defs>
	<path fill="url(#gradient_1)" d="M184.105 563.46L185.907 564.431C179.593 572.018 175.702 579.589 173.82 589.327C171.726 600.167 175.632 613.988 181.937 622.893L186.183 628.15C186.581 631.622 187.734 635.076 188.495 638.499C190.239 646.342 191.818 654.035 194.798 661.536L181.205 661.817L170.973 607.17C169.977 601.079 169.688 594.82 171.051 588.75C173.089 579.675 178.762 570.91 184.105 563.46Z"/>
	<path fill="#2472B2" d="M281.281 705.237L314.318 705.016C309.855 713.462 305.481 720.324 297.034 725.193L296.399 725.407C293.894 726.271 291.747 726.703 289.092 726.22C277.727 724.15 270.655 714.379 264.569 705.475L281.281 705.237Z"/>
	<path fill="#CA6030" d="M845.22 581.974L864.04 581.931C867.077 581.929 870.952 581.452 873.855 582.376L866.475 609.6C865.05 614.576 862.424 619.205 862.292 624.423C858.682 620.645 855.03 620.196 850.095 619.792C850.04 606.964 848.168 594.439 845.22 581.974Z"/>
	<path fill="#83D8F5" d="M654.539 472.322L655.11 501.629L603.897 503.068L591.922 503.763L587.545 494.335L611.181 491.789C611.496 491.456 614.561 491.049 615.314 490.903C618.815 490.226 622.188 489.346 625.612 488.346C625.148 490.221 625.151 492.096 625.095 494.015L640.425 493.357C642.015 489.742 644.933 486.182 647.19 482.931C649.553 479.529 651.703 475.935 654.257 472.675L654.539 472.322Z"/>
	<path fill="#1399C1" d="M246.309 452.213C250.446 451.87 254.086 453.678 257.862 455.152L251.3 479.779L249.187 478.641C244.149 475.606 243.293 467.646 241.938 462.363C239.257 461.737 235.344 462.427 232.559 462.594C234.598 467.816 235.353 474.403 238.196 479.13C239.177 480.762 240.77 482.045 242.19 483.288C244.415 484.662 246.87 485.652 248.951 487.25C248.648 488.496 248.7 488.848 247.75 489.677L218.203 478.365L215.775 457.005C219.863 455.464 224.063 455.133 228.357 454.543L246.309 452.213Z"/>
	<path fill="#57C3D9" d="M451.094 635.441C456.302 622.8 463.51 609.242 471.765 598.378C480.688 586.633 493.321 576.613 508.25 574.429L513.273 573.946C526.649 573.643 538.83 578.331 548.47 587.653C568.487 607.01 574.321 635.189 574.761 661.947C574.591 661.896 574.342 661.945 574.25 661.792C573.95 661.293 571.928 642.953 571.33 640.097C567.738 622.935 560.562 608.697 547.769 596.672L548.502 596.257L549.75 597.5L550.255 597L549.913 596.17L549.612 595.416C549.277 594.632 548.826 594.205 548.444 593.5L548.284 593.016C547.9 592.082 546.908 591.343 546.171 590.68C541.994 586.921 536.258 584.218 530.996 582.367C522.79 579.48 514.717 578.939 506.25 580.851L505.483 581.015C491.516 584.095 479.789 595.644 472.393 607.332L461.821 624.512C459.959 627.422 457.957 630.806 455.525 633.249C454.255 634.525 453.562 635.126 451.733 635.391L451.094 635.441Z"/>
	<path fill="#F8B64D" d="M427.315 248.02L427.423 248.49C428.972 254.792 432.511 260.924 436.61 265.895C423.503 273.195 414.526 285.18 409.887 299.438C404.882 297.094 400.935 290.288 398.549 285.534C397.329 283.104 397.085 280.896 394.677 279.365L395.75 276.768C401.965 264.413 414.074 252.538 427.315 248.02Z"/>
	<path fill="#1399C1" d="M667.173 634.63C670.23 635.534 674.149 635.058 677.329 635.06L699.442 635.031C696.638 646.817 694.848 658.666 694.22 670.764L660.53 670.559L667.173 634.63Z"/>
	<path fill="#1399C1" d="M258.437 661.102C259.298 660.377 260.18 659.863 261.315 659.699C273.187 657.982 285.829 657.978 297.832 657.455L367.905 653.773C382.818 652.495 397.599 650.888 412.229 647.649C421.245 645.652 430.155 641.611 439.324 640.937L431.174 661.18L258.437 661.102Z"/>
	<path fill="#FEFEFE" d="M616.918 381.941C617.775 376.217 617.807 370.362 616.013 364.81C613.445 356.863 607.717 351.854 600.544 348.081L607.76 322.703C622.258 325.739 637.465 327.065 651.526 331.996C649.374 336.865 645.674 341.716 642.75 346.196L625.506 371.443C623.019 374.879 620.634 378.698 617.696 381.756L616.918 381.941Z"/>
	<path fill="#2472B2" d="M603.248 452.67C607.573 452.408 612.923 451.837 617.08 453.215L617.75 453.454C619.915 454.195 621.629 455.153 623.046 457.019C626.07 460.999 626.485 466.872 625.761 471.664L625.627 472.5C625.26 474.877 624.883 476.898 623.366 478.843C618.616 484.932 587.473 485.693 578.812 486.438L557.356 488.739L558.249 487.514C561.811 482.972 566.423 479.539 570.582 475.583C577.267 469.225 584.093 460.992 592.012 456.25C595.708 454.037 599.011 453.185 603.248 452.67Z"/>
	<path fill="#FEFEFE" d="M603.723 458.583C607.751 458.173 612.959 457.748 616.623 459.672C618.051 460.422 619.175 461.482 619.646 463.056C619.856 463.756 620.143 464.296 619.733 464.97C617.603 468.471 613.665 469.914 609.991 471.122C606.322 471.69 602.012 472.564 598.359 471.498C596.226 470.875 595.128 469.877 594.02 468C593.9 466.724 593.809 465.775 594.361 464.583C595.895 461.267 600.51 459.723 603.723 458.583Z"/>
	<path fill="#1399C1" d="M451.094 635.441L451.733 635.391C453.562 635.126 454.255 634.525 455.525 633.249C457.957 630.806 459.959 627.422 461.821 624.512L472.393 607.332C479.789 595.644 491.516 584.095 505.483 581.015L506.25 580.851C514.717 578.939 522.79 579.48 530.996 582.367C536.258 584.218 541.994 586.921 546.171 590.68C546.908 591.343 547.9 592.082 548.284 593.016L548.444 593.5C548.826 594.205 549.277 594.632 549.612 595.416L549.913 596.17L550.255 597L549.75 597.5L548.502 596.257L547.769 596.672C538.135 589.978 527.994 585.141 515.884 587.406C500.974 590.194 489.684 600.208 481.403 612.5C471.142 627.729 465.615 643.526 462.044 661.341L439.141 661.164L451.094 635.441Z"/>
	<path fill="#57C3D9" d="M381.68 295.75C382.444 295.568 382.741 295.62 383.496 295.75L384.954 312.692C382.774 313.453 380.235 313.535 377.944 313.847L366.641 315.727C353.166 318.318 340.004 321.973 327.326 327.249C321.053 329.86 313.869 333.17 308.46 337.308C307.464 338.071 306.592 338.993 306.09 340.156C303.983 345.046 302.505 350.521 300.839 355.595L290.532 388.374L266.513 468.525L260.527 493C260.225 494.246 259.821 497.642 259.172 498.607C258.808 499.147 258.11 499.36 257.579 499.737C256.399 500.099 255.386 500.414 254.133 500.406C254.02 497.525 255.627 493.763 256.331 490.938L266.736 451.95L292.614 361.819L298.02 345.278C298.932 342.57 299.731 339.506 301.04 336.969C302.61 333.926 306.138 331.536 308.826 329.499C322.604 319.055 339.434 310.529 355.515 304.253C364.05 300.922 372.925 298.436 381.68 295.75Z"/>
	<path fill="#F8B64D" d="M425.135 704.769L434.743 704.514C436.444 711.589 439.313 717.363 442.419 723.9L324.21 727.591L309.135 728.661C316.343 721.589 320.473 714.268 324.965 705.353C328.119 704.971 331.61 705.306 334.797 705.327L353.128 705.284L425.135 704.769Z"/>
	<path fill="#1399C1" d="M761.096 577.265C775.428 575.252 789.021 578.574 800.586 587.38C803.274 589.427 805.559 591.725 807.828 594.22C810.614 596.563 812.924 599.921 815.004 602.894C821.433 612.084 826.157 622.847 829.25 633.618C833.331 647.831 836.946 664.042 829.378 677.661C832.301 657.296 828.662 630.841 816.103 613.971C807.126 601.914 794.311 592.234 779.25 589.824C769.254 588.225 759.067 591.214 750.908 597.005C743.634 602.168 738.395 609.416 733.87 616.973C723.788 633.808 717.998 651.727 714.598 670.99L699.446 670.855C701.153 657.374 703.598 644.217 708.196 631.373C715.471 611.049 726.616 591.066 746.979 581.505C751.544 579.361 756.133 578.125 761.096 577.265Z"/>
	<path fill="#57C3D9" d="M761.096 577.265C775.428 575.252 789.021 578.574 800.586 587.38C803.274 589.427 805.559 591.725 807.828 594.22C804.343 593.672 800.255 590.677 797.065 589.045C789.689 585.271 780.879 581.9 772.5 581.718C766.937 581.597 761.168 582.56 755.637 583.16L761.096 577.265Z"/>
	<path fill="#1399C1" d="M579.37 635.48L662.803 635.427L656.544 670.527L581.129 670.493C581.326 658.751 581.221 647.1 579.37 635.48Z"/>
	<path fill="#A6D5F2" d="M744.816 418.617L758.98 503.224L691.088 500.455L692.75 499.757C694.518 495.459 697.505 491.285 700.093 487.431L710.986 471L730.498 440.788C735.211 433.368 739.638 425.726 744.816 418.617Z"/>
	<path fill="#FEFEFE" d="M601.367 444.644C604.918 437.553 609.981 431.008 614.274 424.313C626.467 405.299 639.061 386.116 652.804 368.184L653.377 375.271L654.539 472.322L654.257 472.675C651.703 475.935 649.553 479.529 647.19 482.931C644.933 486.182 642.015 489.742 640.425 493.357L625.095 494.015C625.151 492.096 625.148 490.221 625.612 488.346C627.236 487.718 628.933 486.238 630.026 484.9C633.797 480.284 634.791 470.374 634.371 464.666C633.908 458.375 631.471 452.85 626.54 448.771C619.697 443.11 609.626 444.063 601.367 444.644Z"/>
	<path fill="#A6D5F2" d="M651.526 331.996L652.781 332.687L653.377 375.271L652.804 368.184C639.061 386.116 626.467 405.299 614.274 424.313C609.981 431.008 604.918 437.553 601.367 444.644C597.924 445.305 594.297 445.927 591.071 447.329C584.04 450.387 577.454 457.402 572.093 462.811C570.042 464.88 567.875 467.641 565.488 469.272C556.988 464.581 548.736 461.441 539.372 459.087C548.154 456.526 556.354 453.455 564.278 448.812C580.513 439.297 585.943 424.585 590.53 407.215C594.289 406.548 597.877 405.715 601.25 403.845C609.499 399.272 614.325 390.669 616.918 381.941L617.696 381.756C620.634 378.698 623.019 374.879 625.506 371.443L642.75 346.196C645.674 341.716 649.374 336.865 651.526 331.996Z"/>
	<path fill="#0E3551" d="M775.777 732.1C774.435 733.03 773.567 732.946 771.965 732.861L734 729.677L726 729.146C724.597 729.053 723.314 728.591 721.918 728.913C720.949 729.136 720.45 728.969 719.5 728.721C709.245 714.803 702.087 696.802 700.85 679.556L721.019 680.045C724.402 658.453 730.291 635.291 743.547 617.5C746.931 612.959 750.986 609.122 755.701 605.993C762.381 601.559 771.197 599.174 779.168 600.891C785.656 602.288 792.398 605.235 796.794 610.375L796 610.25C794.834 609.045 793.633 608.067 792.247 607.125L790.497 608.997L789.75 609.245C790.788 610.4 792.466 611.31 793.745 612.25C794.922 613.115 796.347 614.099 797.245 615.25C797.736 615.878 798.033 616.72 798.293 617.466C792.084 611.755 785.236 606.315 776.267 606.561C767.972 606.789 760.304 611.047 754.79 617.082C742.338 630.709 737.261 652.415 738.253 670.461C739.375 690.854 744.447 709.752 760.151 723.862C764.656 727.91 770.151 730.105 775.777 732.1Z"/>
	<path fill="#F8B64D" d="M503.529 461.059C493.525 463.155 482.477 460.111 472.838 457.626C462.091 454.855 451.392 451.661 441.154 447.34C427.175 441.44 416.284 433.169 410.504 418.769C406.776 409.483 405.99 399.874 405.353 390C404.023 369.409 405.335 348.869 408.614 328.484C410.394 317.422 412.57 306.342 417.024 296C421.56 285.467 429.6 274.893 440.582 270.57C439.943 273.625 437.759 276.212 436.297 278.941C434.219 282.821 432.576 286.735 431.48 291L431.229 291.945C429.622 298.129 429.426 304.898 429.011 311.25C428.937 312.396 428.452 314.903 428.713 315.953C428.854 316.521 429.286 316.972 429.573 317.482C427.811 320.681 426.076 324.619 426.063 328.334C426.104 333.218 425.333 337.958 424.965 342.812C424.156 353.479 423.379 365.053 424.076 375.751C426.784 376.219 430.918 376.646 432.703 379.005L433.002 379.5C432.675 380.783 432.09 381.227 431 381.912C428.558 383.448 425.034 383.645 422.236 384.078C423.839 390.342 424.942 396.694 426.98 402.852C432.295 418.912 442.795 433.179 457.341 441.915C469.097 448.975 481.916 455.463 495.144 459.177C498.136 460.017 500.353 460.955 503.529 461.059Z"/>
	<path fill="#DA7539" d="M422.236 384.078C419.862 383.676 416.517 383.433 414.593 381.878C413.242 380.786 412.772 380.184 412.605 378.5C412.949 377.914 412.988 377.771 413.53 377.25C415.656 375.207 421.305 375.728 424.076 375.751C426.784 376.219 430.918 376.646 432.703 379.005L433.002 379.5C432.675 380.783 432.09 381.227 431 381.912C428.558 383.448 425.034 383.645 422.236 384.078Z"/>
	<path fill="#FEFEFE" d="M736.543 372.538C738.361 377.93 739.145 384.079 740.087 389.688L744.816 418.617C739.638 425.726 735.211 433.368 730.498 440.788L710.986 471L700.093 487.431C697.505 491.285 694.518 495.459 692.75 499.757L691.088 500.455L682.883 500.765C681.039 500.874 678.887 501.288 677.082 500.861C675.856 498.585 676.552 492.126 676.532 489.272L676.039 460.406L676.644 462.25L677.25 462.42C688.085 448.842 696.537 433.222 706.087 418.728L726.497 387.523C729.83 382.515 733.749 377.897 736.543 372.538Z"/>
	<path fill="#A6D5F2" d="M736.543 372.538C738.361 377.93 739.145 384.079 740.087 389.688C733.939 397.765 728.637 406.928 723.056 415.44L688.67 468.546L680.714 480.743C679.565 482.424 677.456 484.661 676.743 486.5C676.526 487.059 676.818 489.079 676.837 489.748L677.082 500.861C675.856 498.585 676.552 492.126 676.532 489.272L676.039 460.406L676.644 462.25L677.25 462.42C688.085 448.842 696.537 433.222 706.087 418.728L726.497 387.523C729.83 382.515 733.749 377.897 736.543 372.538Z"/>
	<path fill="#FEFEFE" d="M156.47 682.653C156.478 679.123 155.853 674.807 158.604 672.106C160.431 670.312 162.415 669.851 164.898 669.624C174.791 668.717 185.461 669.546 195.435 669.553L260.274 669.611L456.732 669.913C457.838 673.204 457.099 678.934 457.123 682.525L156.47 682.653Z"/>
	<path fill="#FEFEFE" d="M676.039 460.406L674.037 339.25C691.31 345.102 707.936 354.012 723.5 363.46C727.78 366.058 733.137 368.832 736.543 372.538C733.749 377.897 729.83 382.515 726.497 387.523L706.087 418.728C696.537 433.222 688.085 448.842 677.25 462.42L676.644 462.25L676.039 460.406Z"/>
	<path fill="#C5C0BD" d="M156.47 682.653L457.123 682.525L457.163 695.663L265.622 696.166L200.151 696.199C188.393 696.242 176.331 696.894 164.606 696.33C162.49 696.228 160.873 696.19 159.232 694.703C155.889 691.674 156.536 686.783 156.47 682.653Z"/>
	<path fill="#A6D5F2" d="M389.019 399.598L389.626 399.892C392.711 401.358 395.457 401.85 398.8 402.323C400.863 419.461 407.587 434.933 421.49 445.731C429.182 451.706 437.967 455.695 447.234 458.557C433.442 462.096 419.167 467.839 411.565 480.801C410.414 482.763 409.755 485.065 408.915 487.17L359.455 485.019C349.443 485.044 339.009 485.158 329.074 486.439C329.362 485.258 330.669 483.715 331.378 482.699L338.397 472.954L368.18 429.676C375.084 419.841 382.862 409.887 389.019 399.598Z"/>
	<path fill="#F8B64D" d="M566.556 675.25L567.42 675.526C567.566 676.813 567.671 677.905 568.25 679.09C572.547 679.778 577.28 679.437 581.633 679.448L605.909 679.477L690.351 679.46C691.728 686.109 692.928 692.823 695.115 699.266C698.466 709.134 703.75 718.26 708.912 727.261C707.358 727.685 705.016 727.119 703.395 726.976L692.377 726.323L548.001 720.511C554.032 713.563 558.361 706.463 561.4 697.696C562.501 694.519 563.458 691.198 564.125 687.9C564.757 684.772 564.662 677.502 566.556 675.25Z"/>
	<path fill="#F8B64D" d="M144.944 475.602L209.646 475.877C210.045 478.871 210.081 482.778 212.692 484.748C215.42 486.805 220.154 487.845 223.402 489.011L246.418 497.274C246.112 499.579 245.977 502.105 245.265 504.319C210.489 519.116 180.998 547.197 164.491 581.171L152.437 581.099C150.014 572.635 148.814 563.519 147.642 554.809C144.056 528.178 143.559 502.383 144.944 475.602Z"/>
	<path fill="#F8B64D" d="M881.253 476.602C883.819 511.629 882.089 548.103 873.855 582.376C870.952 581.452 867.077 581.929 864.04 581.931L845.22 581.974C838.717 557.237 826.712 536.315 807.722 519.116C804.778 516.449 801.712 513.84 798.521 511.473C797.058 510.387 793.735 508.696 792.687 507.326C792.157 506.633 791.803 503.23 791.602 502.249L786.67 476.679L881.253 476.602Z"/>
	<path fill="#666462" d="M511.721 606.595L519.25 606.675C528.675 607.621 537.84 614.748 543.456 622.023C555.184 637.219 559.72 658.805 557.164 677.644C555.396 690.685 551.672 702.52 543.093 712.726C540.75 715.514 536.593 719.964 533.185 721.337C531.649 721.956 528.223 721.783 526.451 721.942L513.473 721.723C511.794 721.655 509.425 721.834 507.839 721.289C506.086 720.686 504.299 719.523 502.738 718.525C490.706 710.825 483.466 697.228 480.625 683.5C476.191 662.072 478.812 638.497 491.202 620.07C496.296 612.493 502.76 608.412 511.721 606.595Z"/>
	<path fill="#0A1422" d="M520.816 628.09C525.525 628.046 528.94 628.89 532.947 631.529C540.621 636.586 545.32 645.822 547.056 654.648C549.571 667.434 547.988 682.029 540.565 693.009C536.294 699.327 530.719 702.971 523.242 704.438C518.898 704.171 515.185 703.358 511.472 700.969C503.739 695.994 499.184 686.496 497.305 677.73C494.594 665.082 496.15 650.899 503.349 639.943C507.534 633.574 513.324 629.587 520.816 628.09Z"/>
	<path fill="#FEFEFE" d="M520.29 633.592C523.651 633.359 526.797 633.873 529.75 635.57C535.975 639.149 539.73 646.548 541.556 653.222C544.52 664.057 543.806 677.453 537.994 687.287C534.7 692.859 530.005 696.897 523.666 698.477C520.659 698.577 517.689 698.038 515.011 696.607C508.83 693.305 505.081 686.301 503.148 679.796C500.021 669.275 500.034 655.948 505.475 646.123C509.105 639.569 513.106 635.739 520.29 633.592Z"/>
	<path fill="#666462" d="M775.777 732.1C770.151 730.105 764.656 727.91 760.151 723.862C744.447 709.752 739.375 690.854 738.253 670.461C737.261 652.415 742.338 630.709 754.79 617.082C760.304 611.047 767.972 606.789 776.267 606.561C785.236 606.315 792.084 611.755 798.293 617.466C812.885 635.485 817.03 658.133 814.65 680.843C812.89 697.625 806.508 716.272 792.878 727.12C788.891 730.294 783.26 733.127 778.083 732.475L775.777 732.1Z"/>
	<path fill="#0A1422" d="M780.949 629.153C784.682 629.309 787.866 629.98 791.094 631.97C798.218 636.362 802.039 644.808 803.915 652.646C807.101 665.955 805.911 680.936 798.566 692.745C794.63 699.073 789.468 702.872 782.244 704.608C777.907 704.578 774.241 703.885 770.668 701.234C763.168 695.67 758.917 685.007 757.549 676.06C755.59 663.252 757.028 649.546 765.096 638.912C769.235 633.457 774.061 630.131 780.949 629.153Z"/>
	<path fill="#FEFEFE" d="M779.169 634.597C781.041 634.487 782.909 634.39 784.744 634.858C789.327 636.027 792.854 639.645 795.207 643.59C800.521 652.497 802.358 666.467 799.792 676.541C798.774 680.538 797.607 684.285 795.642 687.942C792.724 693.373 788.689 697.193 782.7 698.953C780.486 699.116 778.591 698.941 776.518 698.088C770.971 695.805 767.25 690.331 764.979 685.009C760.199 673.809 760.318 659.959 765.018 648.75C767.915 641.84 772.185 637.406 779.169 634.597Z"/>
	<path fill="#CA6030" d="M849.483 818.665C850.542 815.018 850.828 810.845 851.423 807.075L854.933 783.852L937.082 793.414L938.882 794.063C938.429 797.361 933.641 803.155 931.65 806.225C929.321 809.818 903.063 848.873 903.119 850.129C903.16 851.061 904.473 853.265 904.92 854.282L914.356 873.258L929.397 903.703L801.483 903.301L840.842 877.573L847.634 832.115C848.187 828.23 849.862 822.496 849.483 818.665Z"/>
	<path fill="#CA6030" d="M167.264 782.656C167.598 782.505 168.44 782.651 168.818 782.674C169.869 786.263 170.243 790.05 170.843 793.737L173.971 813.766L182.024 863.023C183.121 870.053 183.558 877.845 185.477 884.639L228.686 903.733C224.746 904.222 220.554 903.944 216.57 903.948L194.272 903.922L122.117 903.792L93.7421 903.813L120.315 851.954L86.7906 795.871C88.3391 795.043 90.7132 794.908 92.4594 794.638L104 792.853L167.264 782.656Z"/>
	<path fill="#F8B64D" d="M429.602 220.463C429.902 220.185 430.119 219.776 430.5 219.63C430.942 219.461 432.398 219.695 432.985 219.712L441.711 219.86L503.49 220.08C531.697 221.171 563.875 228.111 583.651 249.773C594.95 262.149 600.667 279.208 601.577 295.755C602.068 299.435 601.768 302.927 601.598 306.615C601.053 318.371 598.448 330.522 594.24 341.507C594.209 342.711 593.338 344.548 592.964 345.724C591.743 349.566 590.688 353.606 589.054 357.287L587.572 344.939C585.379 325.431 582.938 302.471 570.877 286.311C567.03 281.156 561.84 276.737 555.524 275.028C548.248 273.059 540.013 274.094 532.604 274.769L505.816 277.249C495.585 277.994 484.675 278.103 474.488 276.835C465.014 275.656 453.3 272.986 445.75 266.822C437.935 260.441 432.024 249.831 431.108 239.757C429.905 233.529 429.332 226.805 429.602 220.463Z"/>
	<path fill="#FEFEFE" d="M429.602 220.463C429.902 220.185 430.119 219.776 430.5 219.63C430.942 219.461 432.398 219.695 432.985 219.712L441.711 219.86L503.49 220.08C531.697 221.171 563.875 228.111 583.651 249.773C594.95 262.149 600.667 279.208 601.577 295.755L601.313 300.5L600.821 300.731L598.878 287.344C597.504 279.924 595.007 272.369 591.358 265.749C587.261 258.316 581.268 251.806 574.75 246.418C564.081 237.599 552.731 232.888 539.52 229.23C511.931 221.592 484.544 222.222 456.202 222.374L436.404 222.033C435.119 221.999 432.293 222.318 431.25 221.884C430.785 221.691 430.018 220.821 429.602 220.463Z"/>
	<defs>
		<linearGradient id="gradient_2" gradientUnits="userSpaceOnUse" x1="497.59744" y1="213.13263" x2="534.73096" y2="365.36005">
			<stop offset="0" stop-color="#BC3D00"/>
			<stop offset="1" stop-color="#FD8710"/>
		</linearGradient>
	</defs>
	<path fill="url(#gradient_2)" d="M431.108 239.757L431.214 239.186C431.531 237.378 431.515 236.265 431.16 234.5C430.925 233.333 430.334 231.335 430.755 230.25C431.388 231.931 431.734 232.988 431.913 234.748L432.5 236.25C432.879 237.145 433.026 238.009 433.25 238.949C433.459 239.829 433.275 239.206 433.75 239.925C435.124 242.007 435.893 244.607 437.256 246.75C443.064 255.877 453.666 262.263 463.426 266.369C456.293 257.828 448.91 246.579 449.53 234.946C454.169 241.454 459.257 246.793 466.001 251.135C478.519 259.193 495.66 262.519 510.188 264.968L532.55 268.137L553.5 269.903C559.583 270.44 565.867 270.86 571.482 273.485C575.9 275.551 580.475 280.082 583.312 284.022L584.354 285.567C590.193 294.182 594.763 305.346 595.471 315.794C595.836 321.184 595.662 326.483 594.848 331.824C594.522 333.963 593.087 338.793 593.567 340.681C593.655 341.025 594.016 341.232 594.24 341.507C594.209 342.711 593.338 344.548 592.964 345.724C591.743 349.566 590.688 353.606 589.054 357.287L587.572 344.939C585.379 325.431 582.938 302.471 570.877 286.311C567.03 281.156 561.84 276.737 555.524 275.028C548.248 273.059 540.013 274.094 532.604 274.769L505.816 277.249C495.585 277.994 484.675 278.103 474.488 276.835C465.014 275.656 453.3 272.986 445.75 266.822C437.935 260.441 432.024 249.831 431.108 239.757Z"/>
	<path fill="#DA7539" d="M765.346 365.811L854.366 366.077C864.264 389.676 871.847 413.81 876.511 439C878.82 451.471 880.132 463.983 881.253 476.602L786.67 476.679L765.346 365.811Z"/>
	<path fill="#DA7539" d="M171.044 366.035L283.203 366.143L259.805 447.48C256.947 445.973 253.913 444.145 250.656 443.741C247.157 443.308 242.854 444.413 239.328 444.856C231.557 445.833 222.533 446.305 215.008 448.356C212.349 449.08 210.575 450.872 209.325 453.263C206.395 458.866 209.406 469.709 209.646 475.877L144.944 475.602C148.572 438.32 155.797 400.466 171.044 366.035Z"/>
	<path fill="#A6D5F2" d="M291.948 490.773L267.156 496.563L278.228 454.082L298.526 387.645L309.131 354.938C310.319 351.489 311.579 345.835 313.914 342.985C315.3 341.294 319.64 339.679 321.593 338.735C341.651 329.053 364.087 323.702 386.108 321.077C387.189 323.239 387.47 326.138 388.023 328.5L391.833 343.074L386.466 345.497C381.509 348.345 377.898 353.194 376.559 358.761L376.391 359.5C375.593 362.798 375.504 365.99 375.385 369.37C376.549 380.392 379.488 391.96 388.532 399.217L389.019 399.598C382.862 409.887 375.084 419.841 368.18 429.676L338.397 472.954L331.378 482.699C330.669 483.715 329.362 485.258 329.074 486.439L291.948 490.773Z"/>
	<path fill="#FEFEFE" d="M375.385 369.37C376.549 380.392 379.488 391.96 388.532 399.217L389.019 399.598C382.862 409.887 375.084 419.841 368.18 429.676L338.397 472.954L331.378 482.699C330.669 483.715 329.362 485.258 329.074 486.439L291.948 490.773L291.616 489.758C296.61 481.946 302.491 474.745 307.798 467.141L351.51 404.676L363.652 387.086C366.931 382.39 370.476 377.705 373.229 372.677C373.887 371.475 374.545 370.452 375.385 369.37Z"/>
	<path fill="#F8B64D" d="M171.044 366.035C186.893 328.077 209.113 294.239 236.278 263.507C242.899 256.017 249.626 248.156 257.365 241.811C271.288 242.914 285.84 242.035 299.86 242.027L382.332 241.953L401.075 241.831C404.426 241.78 408.531 241.171 411.671 242.3C398.706 251.053 387.408 264.091 384.342 279.854L383.355 287.545C355.395 294.088 327.127 305.065 304.342 322.929C301.554 325.114 297.156 328.001 295.248 330.985C293.58 333.594 292.696 337.436 291.675 340.396L283.203 366.143L171.044 366.035Z"/>
	<path fill="#F8B64D" d="M767.567 241.715C780.284 252.596 791.574 265.567 801.936 278.669C808.037 286.384 814.259 294.092 819.794 302.228C827.523 313.59 834.321 325.507 840.904 337.556C845.879 346.662 851.244 356.139 854.366 366.077L765.346 365.811C763.405 351.909 758.547 339.944 748.274 330.096C740.559 322.701 728.733 317.789 719 313.632C707.674 308.795 696.184 304.074 684.476 300.237C667.614 294.71 650.195 290.603 632.814 287.095L614.925 283.75C613.728 283.564 609.269 283.401 608.457 282.842C608.108 282.601 608.01 281.716 607.935 281.345C604.84 266.117 598.542 253.464 587.914 242.113C588.41 241.803 588.611 241.627 589.256 241.505C592.603 240.868 597.323 241.5 600.769 241.543L629.873 241.776L718.976 241.777L767.567 241.715Z"/>
	<path fill="#57C3D9" d="M609.912 295.888L610.04 292.5C611.243 291.608 613.919 292.401 615.446 292.631C654.709 298.547 692.011 311.37 727.898 328.012C739.526 333.472 748.991 339.988 753.691 352.506C755.789 358.093 756.546 364.058 757.634 369.899L762.423 395.249L780.834 490.724L783.994 507.266C784.25 508.581 784.506 511.58 785.123 512.57C785.493 513.164 787.618 514.325 788.258 514.781L796.117 520.696C810.536 532.41 821.059 545.183 829.326 561.82C834.252 572.591 837.691 583.47 839.783 595.139C840.901 601.086 841.609 606.998 842.117 613.023C842.295 615.125 842.871 617.924 842.393 619.967L831.893 620.104C823.212 599.978 811.018 581.527 789.746 573.184C775.576 567.626 758.06 568.152 744.17 574.375C722.997 583.862 710.496 604.342 702.661 625.238L699.442 635.031L677.329 635.06C674.149 635.058 670.23 635.534 667.173 634.63L674.455 596.472C675.773 589.51 677.408 582.625 678.106 575.562C680.297 553.421 677.542 531.518 675.293 509.547C704.961 506.27 734.627 508.86 764.333 508.876C764.258 503.351 762.669 497.274 761.779 491.8L755.627 454.836L745.357 392.726L741.13 368.634C740.627 366.373 740.038 364.117 738.512 362.31C734.699 357.793 727.608 354.285 722.562 351.282C688.792 331.187 648.784 317.812 609.612 313.992C608.936 312.532 609.642 309.062 609.75 307.386C609.998 303.535 610.01 299.745 609.912 295.888Z"/>
	<path fill="#FEFEFE" d="M609.912 295.888L610.04 292.5C611.243 291.608 613.919 292.401 615.446 292.631C654.709 298.547 692.011 311.37 727.898 328.012C728.162 329.143 729.058 329.498 728.75 330.743C719.733 326.217 710.091 322.771 700.622 319.328C671.27 308.657 640.701 301.076 609.912 295.888Z"/>
	<path fill="#A6D5F2" d="M835.932 595.487C831.776 588.218 829.038 580.322 825.51 572.75C816.543 553.508 804.979 535.671 789.75 520.781L790.237 520.25C793.787 523.342 797.752 525.919 801.25 529.033C811.133 537.831 819.317 548.391 825.589 560.009C826.184 560.466 828.27 562.517 828.528 562.505L829.326 561.82C834.252 572.591 837.691 583.47 839.783 595.139L839.163 596.254L839.043 595.329C838.87 594.05 838.459 592.928 838.375 591.625C838.003 591.078 837.762 590.755 837.246 590.324C837.286 591.435 837.337 592.296 837.575 593.379C837.823 594.509 837.687 595.452 837.543 596.582L836.75 596.686L835.932 595.487Z"/>
	<path fill="#83D8F5" d="M825.589 560.009C826.184 560.466 828.27 562.517 828.528 562.505L829.326 561.82C834.252 572.591 837.691 583.47 839.783 595.139L839.163 596.254L839.043 595.329C838.87 594.05 838.459 592.928 838.375 591.625C838.003 591.078 837.762 590.755 837.246 590.324C837.286 591.435 837.337 592.296 837.575 593.379C837.823 594.509 837.687 595.452 837.543 596.582L836.75 596.686L835.932 595.487C837.01 589.227 832.259 581.285 830.374 575.38C828.729 570.223 827.524 565.096 825.589 560.009Z"/>
	<path fill="#F8D5A6" d="M440.582 270.57C442.717 270.77 444.653 272.634 446.496 273.691C449.112 275.192 451.927 276.443 454.75 277.498C462.696 280.466 471.325 282.112 479.721 283.095C494.17 284.788 508.754 283.811 523.176 282.371C532.304 281.46 543.371 279.037 552.433 280.537C558.202 281.492 562.207 284.362 565.903 288.72C569.719 293.219 572.478 299.463 574.531 304.943C582.63 326.565 583.643 351.554 584.529 374.415C584.584 375.828 585.157 376.897 585.371 378.25C585.972 382.044 585.486 386.639 585.114 390.453C584.438 397.378 582.779 404.017 581.072 410.742C576.642 425.266 571.121 435.606 557.25 442.844L553.342 444.66C538.211 452.213 520.156 458.182 503.529 461.059C500.353 460.955 498.136 460.017 495.144 459.177C481.916 455.463 469.097 448.975 457.341 441.915C442.795 433.179 432.295 418.912 426.98 402.852C424.942 396.694 423.839 390.342 422.236 384.078C425.034 383.645 428.558 383.448 431 381.912C432.09 381.227 432.675 380.783 433.002 379.5L432.703 379.005C430.918 376.646 426.784 376.219 424.076 375.751C423.379 365.053 424.156 353.479 424.965 342.812C425.333 337.958 426.104 333.218 426.063 328.334C426.076 324.619 427.811 320.681 429.573 317.482C429.286 316.972 428.854 316.521 428.713 315.953C428.452 314.903 428.937 312.396 429.011 311.25C429.426 304.898 429.622 298.129 431.229 291.945L431.48 291C432.576 286.735 434.219 282.821 436.297 278.941C437.759 276.212 439.943 273.625 440.582 270.57Z"/>
	<path fill="#0A1422" d="M492.278 372.75C493.724 372.581 494.006 372.684 495.36 373.25C496.233 374.384 496.569 374.54 496.531 375.964C496.384 381.394 492.15 381.777 489.049 384.75C491.676 387.732 494.772 386.691 497.441 388.75L497.444 390.25L496.138 391.25C492.949 391.841 489.702 391.291 486.981 389.457C485.302 388.325 484.018 386.775 483.678 384.743C482.873 379.928 488.689 380.321 490.892 377.173C491.976 375.624 491.116 374.345 492.278 372.75Z"/>
	<path fill="#DA7539" d="M550.992 374.533C553.577 374.805 556.253 374.938 558.762 375.637C560.044 376.356 561.264 377.575 561.614 379.055C561.933 380.404 561.599 380.818 561.047 382.02C557.551 384.827 554.365 385.026 550.038 385.181C546.342 384.107 544.73 382.657 542.173 379.885C542.989 378.113 544.064 376.504 545.108 374.862L550.992 374.533Z"/>
	<path fill="#0A1422" d="M429.573 317.482C433.954 311.729 440.048 306.588 447.479 305.553C454.36 304.594 461.615 305.955 467.144 310.344C471.279 313.627 474.063 317.849 475.834 322.761C470.329 316.799 464.743 312.728 456.289 312.425C447.04 312.093 439.209 314.431 432.344 320.834C429.821 323.188 428.259 325.815 426.063 328.334C426.076 324.619 427.811 320.681 429.573 317.482Z"/>
	<path fill="#0A1422" d="M536.11 305.657C542.523 305.321 548.871 306.929 554.132 310.742C562.417 316.746 565.497 324.85 567.047 334.575C562.73 326.361 558.83 320.327 550.508 315.792C544.005 313.15 537.791 311.87 530.798 313.21C524.186 314.476 519.162 317.387 515.382 322.974L512.858 326.61C513.918 323.048 514.982 319.812 517.116 316.714C521.279 310.669 527.27 307.136 534.477 305.92L536.11 305.657Z"/>
	<path fill="#F8B64D" d="M558.762 375.637C563.269 375.887 569.168 377.37 572.223 380.937C578.968 388.812 578.417 399.921 578.835 409.5C578.876 410.441 579.081 411.1 579.775 411.735L581.072 410.742C576.642 425.266 571.121 435.606 557.25 442.844L553.342 444.66C554.457 442.35 556.79 441.714 558.387 439.89C569.019 427.743 560.201 418.418 555.341 406.47C552.548 399.603 550.743 392.556 550.038 385.181C554.365 385.026 557.551 384.827 561.047 382.02C561.599 380.818 561.933 380.404 561.614 379.055C561.264 377.575 560.044 376.356 558.762 375.637Z"/>
	<path fill="#FEFEFE" d="M545.108 374.862C540.013 375.003 534.588 374.996 529.609 373.758C525.73 372.793 522.764 370.301 520.75 366.874C515.997 358.786 515.326 346.584 517.726 337.659L517.981 336.75C518.469 334.968 518.944 333.316 519.862 331.696C522.765 326.576 527.18 323.647 532.86 322.333C537.825 321.184 544.797 322.182 549.035 325.024C554.262 328.529 556.984 334.915 558.296 340.846C560.944 352.81 557.37 364.428 550.992 374.533L545.108 374.862Z"/>
	<path fill="#10517B" d="M530.755 326.75C532.384 326.22 534.113 326.223 535.761 326.699C539.853 327.882 542.589 330.803 544.527 334.5L544.25 334.987C543.001 333.611 542.307 333.052 540.5 332.564C538.99 332.893 537.972 333.212 536.858 334.36C535.458 335.802 534.904 337.635 535.027 339.635C535.187 342.235 536.262 345.701 538.491 347.259C539.565 348.01 540.877 348.082 542.106 347.759C544.88 347.029 545.833 345.121 547.047 342.754L547.444 341.971C548.129 348.727 547.652 355.299 545.076 361.603C543.536 364.439 541.98 366.772 539.142 368.454C536.829 369.825 533.497 370.477 530.875 369.712C527.46 368.715 524.844 365.843 523.25 362.787C519.768 356.11 519.048 346.161 521.252 339.007C522.854 333.806 525.875 329.332 530.755 326.75Z"/>
	<path fill="#FEFEFE" d="M453.101 321.585C458.382 321.354 462.79 321.314 467.338 324.486C473.089 328.498 475.482 335.662 476.652 342.286C478.174 350.898 476.516 360.213 471.376 367.348C467.649 372.522 463.513 373.984 457.477 374.97C452.646 375.14 446.886 374.536 442.521 372.366C438.285 370.26 434.977 364.255 433.72 359.807C431.312 351.279 432.439 339.497 437.02 331.844C440.574 325.907 446.717 323.276 453.101 321.585Z"/>
	<path fill="#10517B" d="M455.18 326.03C457.511 325.929 459.325 326.157 461.402 327.289C465.957 329.771 468.014 335.299 469.399 340C471.575 347.386 470.608 356.495 466.745 363.157C464.502 367.027 461.971 368.832 457.704 369.956C455.795 370.031 453.878 369.958 452.112 369.134C448.269 367.343 445.896 363.342 444.465 359.519C441.772 352.325 442.004 342.282 445.267 335.254C447.44 330.575 450.42 327.8 455.18 326.03Z"/>
	<path fill="#FEFEFE" d="M459.649 333.75C460.36 333.514 460.972 333.386 461.727 333.383C463.762 333.375 465.367 334.619 466.666 336.067C468.381 337.981 468.322 341.348 468.004 343.75C467.753 345.654 466.682 346.668 465.25 347.815C464.467 348.063 463.867 348.159 463.031 348.17C461.506 348.19 460.343 347.716 459.298 346.606C457.392 344.583 456.54 341.298 456.778 338.567C456.981 336.238 457.879 335.162 459.649 333.75Z"/>
	<path fill="#0A1422" d="M454.476 398.75L538.297 398.926C534.412 408.675 530.834 417.103 523.904 425.151C517.401 431.425 510.206 435.808 501.191 437.329C490.598 439.116 479.896 436.655 471.252 430.272C461.657 423.188 455.009 410.985 453.201 399.25L454.476 398.75Z"/>
	<path fill="#FEFEFE" d="M458.53 402.895L532.282 403.052C529.475 410.613 525.751 416.577 520.283 422.48C515.284 426.9 509.655 430.603 503.126 432.296C493.744 434.73 484.493 433.144 476.254 428.06C466.931 422.308 461.048 413.433 458.53 402.895Z"/>
	<path fill="#FEFEFE" d="M162.8 662.276C153.77 647.248 147.801 629.147 142.657 612.437C130.196 571.953 123.896 529.139 125.653 486.75C126.755 460.148 131.172 433.956 137.615 408.152C154.418 340.852 192.226 280.17 241.872 232.25C262.4 212.436 285.03 194.32 309.557 179.633C371.878 142.314 445.695 122.247 518.369 123.623C549.653 124.215 581.251 129.03 611.539 136.681C708.901 161.275 794.195 224.042 845.613 310.434C896.596 396.093 912.698 497.755 888.195 594.607C877.959 635.067 861.814 674.309 838.219 708.888C833.175 716.28 828.046 723.791 822.054 730.458C820.782 729.153 820.031 726.865 819.302 725.217C817.59 721.351 815.396 717.222 814.873 712.99L815.017 712.651C818.192 710.225 820.915 704.665 823.057 701.291C826.44 695.964 830.363 691.293 832.685 685.319C833.263 683.651 835.03 681.755 835.969 680.178C838.179 676.465 839.502 672.852 840.713 668.725L854.044 668.277C856.953 667.863 858.926 667.091 860.647 664.582C861.323 663.597 861.999 662.395 862.273 661.224C863.029 657.993 862.601 653.982 862.676 650.631C862.862 642.268 863.859 632.664 862.292 624.423C862.424 619.205 865.05 614.576 866.475 609.6L873.855 582.376C882.089 548.103 883.819 511.629 881.253 476.602C880.132 463.983 878.82 451.471 876.511 439C871.847 413.81 864.264 389.676 854.366 366.077C851.244 356.139 845.879 346.662 840.904 337.556C834.321 325.507 827.523 313.59 819.794 302.228C814.259 294.092 808.037 286.384 801.936 278.669C791.574 265.567 780.284 252.596 767.567 241.715C705.992 179.915 614.6 145.356 528.25 141.642C452.74 138.394 376.075 158.187 312.281 198.916C292.45 211.577 274.625 225.879 257.365 241.811C249.626 248.156 242.899 256.017 236.278 263.507C209.113 294.239 186.893 328.077 171.044 366.035C155.797 400.466 148.572 438.32 144.944 475.602C143.559 502.383 144.056 528.178 147.642 554.809C148.814 563.519 150.014 572.635 152.437 581.099L164.491 581.171C161.169 589.48 160.107 597.373 161.396 606.261C161.922 609.886 162.833 613.466 162.988 617.141L172.344 661.753C169.218 661.774 165.84 661.542 162.8 662.276Z"/>
	<path fill="#CA6030" d="M164.491 581.171C161.169 589.48 160.107 597.373 161.396 606.261C161.922 609.886 162.833 613.466 162.988 617.141L152.437 581.099L164.491 581.171Z"/>
	<path fill="#DA7539" d="M257.365 241.811C274.625 225.879 292.45 211.577 312.281 198.916C376.075 158.187 452.74 138.394 528.25 141.642C614.6 145.356 705.992 179.915 767.567 241.715L718.976 241.777L629.873 241.776L600.769 241.543C597.323 241.5 592.603 240.868 589.256 241.505C588.611 241.627 588.41 241.803 587.914 242.113C582.098 236.852 576.062 231.627 569.152 227.83C539.359 211.463 504.318 211.382 471.298 211.329L422.454 211.421L423.194 237.222C419.044 238.535 415.481 240.214 411.671 242.3C408.531 241.171 404.426 241.78 401.075 241.831L382.332 241.953L299.86 242.027C285.84 242.035 271.288 242.914 257.365 241.811Z"/>
	<path fill="#57C3D9" d="M184.105 563.46C203.187 538.57 228.342 518.754 258 508.017C274.796 501.937 292.595 498.837 310.25 496.481C334.654 493.224 359.531 492.513 384.122 493.557L466.015 499.256C487.491 500.411 509.623 501.492 531.105 500.385C546.74 499.58 562.361 497.365 577.882 495.392C579.641 498.389 581.277 501.265 582.509 504.523C549.353 507.573 516.226 510.762 483.513 517.186L459.589 522.803C430.53 529.909 401.968 539.57 375.943 554.536L360.981 563.728C359.125 564.963 356.499 566.463 355.118 568.235C354.328 569.248 354.431 570.261 354.75 571.454C355.161 572.992 356.037 573.977 357.25 574.932C359.54 574.672 361.671 572.957 363.543 571.694L374.93 564.33L390.75 555.745C411.031 545.786 432.893 538.239 454.703 532.472C502.74 519.77 553.627 513.926 603.208 511.351C623.038 510.321 643.293 511.302 663.004 509.311L660.542 334.531L660.911 334.348L665.517 335.986L667.36 429.346L668.762 500.614C669.105 508.695 671.399 516.615 672.507 524.656C674.568 539.611 675.06 555.132 674.215 570.196C673.626 580.682 670.994 590.94 669.075 601.244L662.803 635.427L579.37 635.48C574.804 611.973 565.184 588.609 544.61 574.713C532.756 566.706 518.6 564.062 504.638 566.894C485.968 570.68 470.695 584.182 460.586 599.794L439.324 640.937C430.155 641.611 421.245 645.652 412.229 647.649C397.599 650.888 382.818 652.495 367.905 653.773L297.832 657.455C285.829 657.978 273.187 657.982 261.315 659.699C260.18 659.863 259.298 660.377 258.437 661.102L194.798 661.536C191.818 654.035 190.239 646.342 188.495 638.499C187.734 635.076 186.581 631.622 186.183 628.15L181.937 622.893C175.632 613.988 171.726 600.167 173.82 589.327C175.702 579.589 179.593 572.018 185.907 564.431L184.105 563.46Z"/>
	<path fill="#0A1422" d="M634.713 523.706L650.166 523.396C652.063 523.401 654.403 523.147 656.067 524.175L656.5 524.475C657.66 525.27 658.17 525.836 658.635 527.192C659.1 528.548 658.892 529.944 658.193 531.201C657.423 532.587 655.926 533.669 654.371 533.973L650.125 534.357C644.985 534.384 630.234 535.593 626.25 533.504C625.008 532.852 624.078 531.366 623.892 530C623.712 528.679 623.897 527.316 624.739 526.25C626.804 523.636 631.706 523.926 634.713 523.706Z"/>
	<path fill="#A6D5F2" d="M358.636 497.781C366.417 496.91 374.764 497.387 382.592 497.661C398.494 498.22 415.904 498.518 431 503.935C432.84 504.595 434.767 505.299 436.25 506.629C437.366 507.63 437.389 508.317 437.482 509.75C435.757 511.878 434.003 512.126 431.405 512.301C425.472 512.7 419.024 511.833 413.079 511.423L383.946 510.119C351.069 510.058 319.204 514.497 286.879 519.919C270.196 523.302 252.99 527.123 237 533.036C232.204 534.809 227.679 537.146 222.95 539.078C226.409 535.377 232.763 532.413 237.176 529.758C273.387 507.968 316.907 500.088 358.636 497.781Z"/>
	<path fill="#0A1422" d="M185.907 564.431C192.622 557.977 200.802 553.358 210.425 553.589C220.471 553.831 229.658 558.833 236.348 566.135C244.151 574.652 248.691 586.039 248.183 597.658C247.672 609.348 242.898 620.983 234.07 628.864C229.938 632.552 225.315 635.035 220 636.541L219.121 636.799C210.889 639.082 201.039 637.512 193.682 633.278L186.183 628.15L181.937 622.893C175.632 613.988 171.726 600.167 173.82 589.327C175.702 579.589 179.593 572.018 185.907 564.431Z"/>
	<path fill="#FEFEFE" d="M204.937 561.589C208.62 561.295 212.798 560.95 216.402 561.903C224.312 563.993 231.462 570.273 235.483 577.242C239.95 584.984 242.209 595.853 239.812 604.582L239.547 605.5C238.801 608.176 237.852 610.564 236.582 613.033C232.188 621.582 225.69 626.772 216.584 629.671C209.852 630.727 203.906 630.248 197.75 626.991C190.252 623.024 185.269 615.505 182.83 607.558C179.672 597.263 180.519 586.126 185.67 576.583C189.884 568.777 196.591 564.027 204.937 561.589Z"/>
	<path fill="#0A1422" d="M210.99 569.071C214.454 568.869 217.549 568.979 220.75 570.548C226.772 573.499 231.313 579.714 233.357 586C235.83 593.606 235.326 604.031 231.451 611.135C228.255 616.997 223.209 620.757 216.895 622.563C212.447 622.928 208.401 622.533 204.507 620.173C198.662 616.632 194.986 609.886 193.42 603.406C191.445 595.236 192.6 585.855 197.138 578.717C200.5 573.428 204.864 570.437 210.99 569.071Z"/>
	<path fill="#FEFEFE" d="M211.785 575.564C214.113 575.684 216.184 575.951 218.25 577.117C222.688 579.621 225.782 584.174 227.164 588.985C228.854 594.867 228.112 602.236 225.028 607.53C222.526 611.825 219.298 614.784 214.469 616.094C212.217 616.094 210.398 615.789 208.372 614.76C203.926 612.503 200.65 607.372 199.141 602.745C197.145 596.625 198.204 589.297 201.261 583.735C203.73 579.242 206.953 576.957 211.785 575.564Z"/>
	<path fill="#0A1422" d="M407.187 554.637C416.139 553.628 424.366 556.206 431.735 561.191C440.82 567.338 446.579 576.332 448.488 587.129C450.612 599.146 448.152 611.489 441.116 621.536C434.264 631.321 424.46 636.471 412.876 638.456L405.461 638.272C394.879 637.088 384.795 632.42 378.149 623.913C371.596 615.525 368.449 604.239 369.81 593.67L369.936 592.75C370.918 585.305 373.026 578.674 377.359 572.46C384.449 562.294 395.166 556.689 407.187 554.637Z"/>
	<path fill="#FEFEFE" d="M406.635 562.615C413.922 561.688 421.437 563.562 427.451 567.764C434.913 572.977 439.615 580.731 441.041 589.707C442.618 599.635 440.34 609.772 434.234 617.792C428.581 625.217 420.502 629.558 411.332 630.793C409.31 631.003 407.264 630.788 405.25 630.556C396.843 629.586 388.95 624.597 383.785 618.005C379.037 611.944 375.787 603.128 376.797 595.368L376.921 594.5C377.737 588.477 379.502 583.242 382.933 578.186C388.729 569.644 396.555 564.503 406.635 562.615Z"/>
	<path fill="#0A1422" d="M409.856 568.559C413.504 568.209 417.237 568.257 420.645 569.728C426.857 572.409 431.549 577.903 433.869 584.197C436.858 592.306 436.104 603.088 432.198 610.811C429.156 616.823 423.881 620.4 417.628 622.482C412.906 623.21 408.775 622.831 404.5 620.566C398.77 617.531 394.961 611.685 393.117 605.606C390.579 597.243 391.167 587.036 395.501 579.388C398.762 573.632 403.612 570.364 409.856 568.559Z"/>
	<path fill="#FEFEFE" d="M411.122 575.579C413.452 575.429 415.318 575.461 417.5 576.375C422.097 578.302 425.299 582.04 426.982 586.671C429.219 592.827 428.952 600.725 426.051 606.609C423.796 611.183 420.516 613.482 415.916 615.183C413.631 615.424 411.684 615.263 409.5 614.492C405.267 612.998 402.277 609.408 400.385 605.465C397.638 599.741 397.788 592.712 400.021 586.836C402.161 581.204 405.76 577.893 411.122 575.579Z"/>
	<path fill="#0A1422" d="M264.143 578.694L312.445 578.347L336.093 578.346C340.14 578.369 344.386 578.155 348.398 578.577C350.372 578.785 352.518 579.661 354.077 580.884C356.177 582.531 357.173 584.584 357.41 587.21C358.002 593.76 354.711 601.013 352.254 606.915C348.064 616.981 343.452 627.872 336.266 636.176C332.309 640.836 326.184 644.095 320.359 645.705C314.918 647.209 309.052 647.489 303.445 647.508C294.692 647.538 285.563 647.074 277.822 642.544C268.741 637.229 265.058 627.082 261.806 617.638C259.705 611.534 257.791 605.336 256.254 599.065C255.114 594.412 253.236 587.376 256.156 583.131C258.22 580.131 260.744 579.373 264.143 578.694Z"/>
	<path fill="#2472B2" d="M263.563 586.25C266.945 585.721 270.807 586.056 274.241 586.051L294.966 586.04L330.444 586.053C336.591 586.061 343.206 585.504 349.25 586.523C349.787 587.134 350.102 587.339 350.292 588.163C350.77 590.23 348.831 594.532 348.125 596.516C344.555 606.55 340.323 616.921 334.493 625.866C332.614 628.627 330.338 631.285 327.735 633.392C318.394 640.957 305.488 641.317 294.04 640.005C286.386 639.128 280.721 636.689 275.916 630.5C270.605 623.66 261.11 595.726 262.217 587.25L263.563 586.25Z"/>
	<path fill="#DA7539" d="M299.944 864.111C297.551 863.933 294.612 864.597 292.183 864.879L273.598 867.239L194.648 878.722L175.246 751.119L258.217 740.796L309.74 738.148L369.88 735.447L538.16 731.917L849.045 750.099L829.087 877.454L698.244 861.573L654.535 857.847L579.74 854.011C505.604 851.691 431.97 852.527 358 858.353L316.737 862.077C311.325 862.644 305.191 862.794 299.944 864.111Z"/>
	<path fill="#FEFEFE" d="M760.66 774.463L780.242 776.647L772.901 829.188L793.208 832.828L791.3 847.75L790.918 848.2C788.15 849.186 776.149 845.677 772.387 844.96L753.064 841.714L760.66 774.463Z"/>
	<path fill="#FEFEFE" d="M643.59 763.232L692.147 766.858L690.176 784.063L675.849 782.96L673.313 817.119L671.894 832.545L653.541 831.477L657.122 782.224L642.452 781.388L643.59 763.232Z"/>
	<path fill="#FEFEFE" d="M523.948 759.97L567.003 760.564L566.534 779.886L553.466 779.337C551.601 779.252 549.065 778.857 547.285 779.374C546.269 779.669 546.415 779.879 545.94 780.75C545.971 782.407 545.737 783.161 546.75 784.51L564.167 784.979L563.783 802.412C558.329 802.342 551.849 801.481 546.5 802.407C545.098 803.744 545.121 803.95 544.75 805.755L545.037 806.194C545.462 806.715 545.984 807.113 546.638 807.302C548.554 807.857 551.233 807.552 553.243 807.592L566.595 808.091L566.048 826.47L523.959 825.408L523.948 759.97Z"/>
	<path fill="#FEFEFE" d="M265.307 772.614C272.315 771.953 278.889 772.647 285.331 775.596C292.973 779.095 297.282 785.652 300.185 793.254C298.291 793.445 281.077 795.652 280.847 795.512C279.13 794.468 277.923 792.283 276.029 791.157C273.188 789.468 268.877 789.225 265.75 790.092C261.896 791.161 258.699 793.469 256.792 797.014C254.101 802.015 254.229 808.959 256.061 814.25C257.526 818.484 260.256 822.303 264.462 824.148C268.198 825.787 272.489 825.216 276.187 823.801C280.863 822.013 282.579 818.285 284.42 814.005C288.973 814.449 293.564 814.108 298.125 813.911L303.075 813.646C301.927 818.257 299.942 822.898 297.552 826.999C293.296 834.3 285.643 838.618 277.65 840.698C268.852 842.987 258.629 841.847 250.856 837.059C242.139 831.688 237.009 822.966 234.91 813.095C233.108 804.624 235.362 794.878 240.101 787.693C245.863 778.956 255.419 774.646 265.307 772.614Z"/>
	<path fill="#FEFEFE" d="M337.367 767.25C338.884 767.076 340.227 767.02 341.75 767.148C345.193 772.554 347.676 778.795 350.407 784.591L362.541 809.556C365.828 816.242 368.927 822.984 373.025 829.224L353.617 831.156L348.987 822.264L335.622 823.414L324.958 824.106L322.646 834.328L303.121 836.086L322.294 768.622L337.367 767.25Z"/>
	<path fill="#DA7539" d="M333.352 787.627L343.1 810.093L337.739 810.442L327.909 811.102L333.352 787.627Z"/>
	<path fill="#FEFEFE" d="M715.156 769.011L731.722 770.522L749.059 840.938L728.763 838.842C727.994 835.829 727.484 831.509 726.036 828.815L718.876 828.428L704.237 827.374L700.02 834.663L680.223 833.259L680.112 832.928L715.156 769.011Z"/>
	<path fill="#DA7539" d="M718.894 798.75C719.546 798.664 719.124 798.682 720.154 798.888C721.283 802.335 722.398 806.374 722.499 810L721.75 810.712L716.377 810.421C715.411 810.413 714.683 810.161 713.75 809.905L713.557 808.75C714.852 804.971 716.324 801.883 718.894 798.75Z"/>
	<path fill="#FEFEFE" d="M394.873 763.231C399.107 763.05 404.599 763.036 408.679 764.216L409.5 764.471C413.744 765.728 417.47 767.468 420.367 770.918C424.038 775.291 425.379 780.861 424.73 786.477C423.877 793.85 419.765 797.487 414.295 801.759L431.223 825.829L407.56 826.841L402.953 819.256L394.001 805.404L395.2 827.439L376.062 828.582L371.242 764.519L394.873 763.231Z"/>
	<path fill="#DA7539" d="M391.705 778.508C394.605 778.431 398.352 777.986 401.039 779.162C402.656 779.87 404.092 781.255 404.541 783C405.336 786.088 403.61 788.526 401.992 790.916L401.203 791.323C398.452 792.842 395.643 792.724 392.566 792.868L391.705 778.508Z"/>
	<path fill="#FEFEFE" d="M466.614 760.734C476.42 760.426 487.273 759.504 496.894 761.558C503.044 762.871 508.51 764.801 512.024 770.461C515.086 775.393 515.514 781.976 514.166 787.548C512.623 793.934 507.257 796.917 502.047 800.009C506.152 808.72 512.22 816.638 516.95 825.049L501.451 824.943L493.146 825L481.104 800.981L481.278 824.78L461.511 824.884C461.505 817.019 460.726 762.977 462 761.003L466.614 760.734Z"/>
	<path fill="#DA7539" d="M483.105 775.75L483.975 775.679C486.792 775.493 490.234 775.864 492.353 777.911C493.77 779.28 494.636 780.849 494.537 782.858C494.406 785.507 493.102 786.79 491.231 788.508C487.907 789.768 484.795 789.912 481.284 790.094C481.034 785.649 480.819 780.664 481.353 776.25L483.105 775.75Z"/>
	<path fill="#FEFEFE" d="M574.008 760.547C576.863 760.554 581.034 759.993 583.734 760.569C584.953 760.83 588.018 764.378 589.026 765.363L603.315 779.529C606.579 782.924 609.524 786.599 613.225 789.54C613.925 788.496 613.758 784.574 613.843 783.174L615.066 761.475L636.557 762.52L632.799 827.75C632.667 828.803 632.828 828.615 632 829.485C629.798 829.478 625.769 830.03 623.78 829.461C623.567 829.4 622.584 828.312 622.412 828.144L616.274 821.606L594.602 799.881L593.435 827.41L571.893 826.441L574.008 760.547Z"/>
</svg>
